<?xml version="1.0" encoding="UTF-8"?>
<svg version="1.1" xmlns="http://www.w3.org/2000/svg" width="800" height="800">
<path d="M0 0 C232.98 0 465.96 0 706 0 C704.85137432 21.82388786 704.85137432 21.82388786 703.91146851 32.17242813 C703.75316838 33.9622965 703.75316838 33.9622965 703.59167027 35.78832382 C703.30281686 39.04657512 703.01094914 42.30453867 702.71770433 45.5623971 C702.39762971 49.12705885 702.08161418 52.69208102 701.76505089 56.257056 C701.21128286 62.48710933 700.6549872 68.71693282 700.09697723 74.94660759 C699.26722892 84.21009886 698.4414652 93.47394238 697.61646813 102.73785784 C696.14276125 119.28472714 694.6651771 135.83124844 693.18598026 152.37762776 C691.89216949 166.85049047 690.59978036 181.32347931 689.30877686 195.79659271 C689.22303722 196.7577818 689.13729758 197.71897088 689.04895978 198.70928691 C688.70090235 202.61124077 688.35285314 206.51319537 688.00481524 210.41515098 C684.7432218 246.98172445 681.4778705 283.54796145 678.21063861 320.11403152 C675.30778047 352.60232216 672.40755948 385.09084711 669.50976562 417.57958984 C669.32353778 419.66748112 669.1373099 421.75537239 668.95108199 423.84326366 C668.85901431 424.87548029 668.76694663 425.90769693 668.67208902 426.97119285 C668.2086331 432.16721862 667.74517285 437.363244 667.28170776 442.55926895 C667.14455614 444.09691666 667.14455614 444.09691666 667.00463377 445.66562796 C664.58231596 472.82261518 662.15819117 499.9794411 659.73346138 527.13621306 C659.60412531 528.58477048 659.60412531 528.58477048 659.4721764 530.06259168 C658.75718592 538.07043621 658.75718592 538.07043621 658.43200676 541.71233016 C657.22544921 555.22546657 656.01952609 568.73865947 654.81401974 582.2518897 C653.26138954 599.65614766 651.70751245 617.06029356 650.15146112 634.464246 C649.32844199 643.66984487 648.50643721 652.87553296 647.68589526 662.08135296 C647.13810038 668.22599061 646.58895418 674.37050651 646.03869552 680.514924 C645.72499615 684.01823715 645.41188592 687.52160021 645.10040355 691.02511123 C644.76482367 694.79611805 644.42697237 698.56691459 644.08853149 702.33766556 C643.99197494 703.42886544 643.89541838 704.52006533 643.79593587 705.64433187 C643.33161755 710.79064681 642.79593397 715.89401502 642 721 C641.19760895 721.22010239 640.3952179 721.44020477 639.56851196 721.66697693 C594.9967925 733.89496746 550.44401427 746.1892612 505.91503906 758.57202148 C504.98288637 758.83123729 504.05073368 759.09045309 503.09033394 759.35752392 C502.15782751 759.61683854 501.22532108 759.87615316 500.26455688 760.14332581 C499.33182575 760.40269991 498.39909462 760.66207401 497.43809891 760.92930794 C495.55672355 761.4524878 493.675353 761.97568494 491.79398727 762.49889946 C477.52504343 766.46696109 463.25365523 770.42613363 448.98046875 774.37890625 C448.04258451 774.63866179 447.10470028 774.89841732 446.13839531 775.16604424 C437.16724694 777.65064948 428.19593904 780.1346767 419.22414303 782.61694241 C416.77352585 783.29510163 414.32302336 783.97367387 411.87254333 784.65232849 C408.74403113 785.5187519 405.61504855 786.38344635 402.48573303 787.2469635 C394.91657907 789.33861971 387.35951048 791.46512616 379.81738281 793.65234375 C377.62129226 794.28514202 375.42500593 794.91725652 373.22867203 795.54920959 C371.2005955 796.13661747 369.17613766 796.7354351 367.15158081 797.33483887 C365.92996246 797.68647095 364.70834412 798.03810303 363.44970703 798.40039062 C362.39204132 798.71061157 361.33437561 799.02083252 360.24465942 799.3404541 C353.56948699 800.69732458 348.14930891 800.04166858 341.64477539 798.2253418 C340.60058803 797.93834616 340.60058803 797.93834616 339.53530598 797.64555264 C337.21993213 797.00650722 334.90893731 796.35289831 332.59765625 795.69921875 C330.92681244 795.23485538 329.25571328 794.77140997 327.5843811 794.30880737 C323.03108724 793.04576299 318.48143063 791.7700419 313.93227768 790.49217606 C309.07324858 789.12972056 304.21089593 787.77922919 299.34887695 786.42749023 C291.10031342 784.13265817 282.85370388 781.83092366 274.60839844 779.52441406 C262.34906203 776.09531695 250.08523507 772.68249205 237.8203125 769.2734375 C233.79887966 768.15546213 229.77748189 767.0373607 225.75610352 765.91918945 C224.760687 765.64241143 223.76527048 765.36563341 222.73968983 765.08046818 C212.66092691 762.27767196 202.58356111 759.46986667 192.5062809 756.66174507 C167.54247742 749.70542231 142.57467715 742.76353143 117.60513687 735.82783127 C114.65049581 735.0070823 111.69589278 734.18619661 108.74130249 733.36526489 C104.13238618 732.08468881 99.52339502 730.80438254 94.91433907 729.52430916 C93.23590465 729.05812533 91.55749171 728.59186417 89.87910271 728.12551689 C81.25815923 725.73027654 72.63499131 723.34422057 64 721 C62.26951304 707.21184282 60.98776394 693.39631496 59.76327515 679.55519104 C59.54471644 677.10501412 59.325946 674.65485608 59.10698378 672.20471519 C58.63355148 666.90168642 58.16159701 661.59852931 57.69098282 656.29524994 C56.99077639 648.40482498 56.28777389 640.51465083 55.58422608 632.62452319 C54.39839072 619.3247639 53.21479263 606.02480641 52.03248215 592.72473335 C50.85740759 579.50614241 49.68132287 566.28764197 48.50392532 553.06925774 C48.43036107 552.24336139 48.35679683 551.41746504 48.28100336 550.56654153 C47.90715896 546.36949557 47.53329705 542.17245117 47.15942855 537.97540735 C44.51011372 508.23385827 41.86304193 478.49210994 39.21728516 448.75024414 C36.66765343 420.08900892 34.11700601 391.4278644 31.56494141 362.7668457 C31.48678995 361.88915946 31.40863849 361.01147323 31.3281188 360.10719043 C30.62057701 352.16109639 29.91302194 344.21500352 29.20545121 336.26891205 C27.50576322 317.18123624 25.80624707 298.09354512 24.10684204 279.00584412 C24.0317339 278.16223063 23.95662575 277.31861714 23.8792416 276.4494396 C21.75518709 252.59199716 19.63152521 228.7345198 17.50844623 204.87699052 C17.22922613 201.73933176 16.9499958 198.6016739 16.67075597 195.46401689 C15.27212088 179.7483096 13.87383087 164.03257188 12.47717629 148.31668845 C11.97835866 142.70387515 11.47943371 137.09107139 10.98046272 131.47827172 C10.85884436 130.11021267 10.73723052 128.74215322 10.61562128 127.37409336 C9.00189805 109.22082458 7.37992369 91.06831627 5.74793349 72.91668019 C5.16928754 66.47706521 4.59235237 60.03729671 4.01547838 53.59752278 C3.49653699 47.80715887 2.97456537 42.01707959 2.45002705 36.22722015 C2.13884782 32.78465533 1.83053974 29.34183802 1.5230746 25.89893968 C1.38352501 24.34315943 1.24275734 22.78748784 1.10062268 21.23194163 C0.90902332 19.13366578 0.7218031 17.03504236 0.53563881 14.93627834 C0.43129292 13.77974552 0.32694703 12.62321269 0.21943915 11.43163341 C-0.02377797 7.6281554 0 3.81124646 0 0 Z " fill="#264DE4" transform="translate(47,0)"/>
<path d="M0 0 C145.86 0 291.72 0 442 0 C439.709361 30.9236265 439.709361 30.9236265 438.52001953 43.50151062 C438.28719199 45.96404105 438.05772815 48.42686929 437.82885742 50.88977051 C437.49714539 54.45634754 437.16422014 58.02280788 436.83023071 61.58917236 C435.93120586 71.19415109 435.04238174 80.80007411 434.15625 90.40625 C434.06573175 91.38723286 433.97521351 92.36821571 433.88195229 93.37892532 C431.93977491 114.45365397 430.11439458 135.53788622 428.3125 156.625 C426.37583577 179.27960256 424.38731569 201.92532658 422.20516968 224.55789185 C420.20182973 245.38069843 418.40873359 266.22000945 416.625 287.0625 C414.2794564 314.46717011 411.85340259 341.86272801 409.3125 369.25 C409.20211332 370.43991735 409.20211332 370.43991735 409.08949661 371.65387344 C408.72636622 375.56762458 408.36306839 379.48136018 407.99977112 383.39509583 C407.92984011 384.14850565 407.8599091 384.90191547 407.78785896 385.6781559 C407.64878059 387.17636772 407.50966534 388.67457613 407.37051201 390.17278099 C405.51930317 410.10973024 403.74655609 430.05363014 402 450 C398.71951673 451.10714858 395.44806255 452.1954518 392.109375 453.11328125 C391.05943359 453.40332031 391.05943359 453.40332031 389.98828125 453.69921875 C388.88033203 454.00279297 388.88033203 454.00279297 387.75 454.3125 C386.14061349 454.75646869 384.53123882 455.20048031 382.921875 455.64453125 C382.10396484 455.86963379 381.28605469 456.09473633 380.44335938 456.32666016 C376.6272027 457.37831484 372.81367532 458.43938959 369 459.5 C367.50001401 459.9167171 366.00001397 460.33338364 364.5 460.75 C363.7575 460.95625 363.015 461.1625 362.25 461.375 C337.5 468.25 337.5 468.25 335.25146484 468.87451172 C333.74652608 469.29260466 332.24164354 469.7109 330.73681641 470.12939453 C327.06280567 471.15087905 323.38799244 472.16921195 319.7109375 473.1796875 C311.0736261 475.55851687 302.46875023 478.0305447 293.875 480.5625 C285.94669302 482.8963605 278.01766679 485.03099962 269.984375 486.97265625 C264.4124371 488.36564073 258.93987815 490.10033594 253.44946289 491.78051758 C246.83961649 493.78770611 240.1963076 495.52712525 233.48046875 497.140625 C231.1102364 497.72586756 228.75746488 498.38566117 226.42578125 499.109375 C220.66463849 500.60714073 216.38683957 500.03486765 210.75 498.3125 C208.90921875 497.76335937 208.90921875 497.76335937 207.03125 497.203125 C206.05091797 496.90825195 206.05091797 496.90825195 205.05078125 496.60742188 C201.46378892 495.54498891 197.85629906 494.55700451 194.25 493.5625 C192.71350772 493.13684127 191.17704969 492.71105888 189.640625 492.28515625 C188.48916992 491.96635498 188.48916992 491.96635498 187.31445312 491.64111328 C183.5423701 490.59623037 179.77122533 489.5479734 176 488.5 C174.50000467 488.08331654 173.00000466 487.66664988 171.5 487.25 C144.5 479.75 117.5 472.25 90.5 464.75 C89.75766113 464.54383057 89.01532227 464.33766113 88.25048828 464.12524414 C86.74878604 463.70803222 85.24715852 463.29055125 83.74560547 462.87280273 C80.02221213 461.83727178 76.29768587 460.80627553 72.5703125 459.78515625 C61.32644717 456.69698283 50.15851089 453.38249552 39 450 C38.93072296 449.15852921 38.86144592 448.31705841 38.79006958 447.4500885 C36.64700772 421.4675527 34.40851093 395.49373208 32.14379883 369.52154541 C31.78071977 365.35578206 31.4183058 361.18996096 31.0559063 357.02413845 C30.61827275 351.99393313 30.18023764 346.9637628 29.7421875 341.93359375 C29.66081417 340.99874083 29.57944084 340.0638879 29.49560165 339.1007061 C29.26405465 336.44138553 29.03221786 333.78209037 28.80029297 331.12280273 C28.70054672 329.9765593 28.70054672 329.9765593 28.5987854 328.80715942 C28.08050998 322.869986 27.53958173 316.93539903 27 311 C56.37 311 85.74 311 116 311 C119.49361188 341.27796961 119.49361188 341.27796961 120.50805664 353.84790039 C120.69267412 356.12635643 120.8860851 358.40396537 121.08007812 360.68164062 C121.67361441 367.79862019 122.1703868 374.85186813 122 382 C122.804375 382.13535156 123.60875 382.27070312 124.4375 382.41015625 C133.66772633 384.10034024 142.54407737 386.54852032 151.53051758 389.23828125 C158.7084745 391.37152966 165.91301701 393.28780444 173.1875 395.0625 C180.9425858 396.95666927 188.64211398 398.97414794 196.3125 401.1875 C197.18519531 401.43773926 198.05789063 401.68797852 198.95703125 401.94580078 C202.45121369 402.95274832 205.93206761 403.97844903 209.3984375 405.078125 C218.82813587 407.9836343 227.18708331 406.20653947 236.5625 403.75 C237.42746094 403.52892578 238.29242188 403.30785156 239.18359375 403.08007812 C245.35362871 401.48328755 251.4646192 399.71963265 257.56469727 397.87597656 C263.004644 396.24786597 268.48442585 394.84743239 274 393.5 C281.02291147 391.78313875 287.96237747 389.89116699 294.88720703 387.81567383 C299.69988108 386.37508695 304.52486292 384.99673583 309.375 383.6875 C310.57898438 383.36136719 311.78296875 383.03523438 313.0234375 382.69921875 C316 382 316 382 319 382 C319.08918701 380.70872192 319.08918701 380.70872192 319.18017578 379.39135742 C320.83034777 355.82854244 322.81036731 332.29933137 324.9210434 308.77399063 C325.12469102 306.50344489 325.3277911 304.23285065 325.53082275 301.96224976 C325.8554312 298.33525405 326.18191874 294.70843213 326.50997925 291.08174706 C326.69020957 289.08770795 326.86941177 287.09357599 327.04858398 285.09944153 C327.15904053 283.88648911 327.26949707 282.67353668 327.38330078 281.42382812 C327.47862091 280.37199341 327.57394104 279.32015869 327.67214966 278.2364502 C328.05225953 274.484108 328.53219735 270.74242117 329 267 C228.02 267 127.04 267 23 267 C16 188 16 188 16 179 C121.93 179 227.86 179 337 179 C337.66 169.1 338.32 159.2 339 149 C339.71974059 140.67926064 340.44426841 132.36387087 341.23217773 124.05004883 C341.57009226 120.48234082 341.90165417 116.91408023 342.23242188 113.34570312 C342.44755943 111.04423741 342.66304038 108.74280377 342.87890625 106.44140625 C342.97683975 105.3904628 343.07477325 104.33951935 343.17567444 103.25672913 C343.26924728 102.27296799 343.36282013 101.28920685 343.45922852 100.27563477 C343.53979996 99.42236099 343.6203714 98.56908722 343.7033844 97.68995667 C344.06055737 94.4508155 344.53913976 91.22602168 345 88 C233.46 88 121.92 88 7 88 C1 19 1 19 0 0 Z " fill="#FEFEFE" transform="translate(179,147)"/>
<path d="M0 0 C95.04 0 190.08 0 288 0 C287.40570981 11.8858038 286.77710335 23.61863872 285.625 35.4375 C285.35365805 38.29398222 285.08637616 41.15083419 284.8203125 44.0078125 C284.75213318 44.73791031 284.68395386 45.46800812 284.6137085 46.2202301 C283.89836384 53.95934796 283.29246448 61.7065583 282.68493652 69.45474243 C281.65638219 82.56779181 280.45517188 95.63504451 278.98657227 108.70751953 C278.16723303 116.09744495 277.61409827 123.4482236 277.26342773 130.87329102 C277.0379924 134.87593483 276.5713415 138.83734868 276.0625 142.8125 C275.02120392 151.30868531 274.34562229 159.81183855 273.73849487 168.34848022 C272.76672564 181.95375498 271.59431047 195.50210497 270.05493164 209.0559082 C269.03639949 218.19189385 268.37339117 227.33117128 267.76928711 236.50268555 C267.13186166 245.86793632 266.15679366 255.17339482 265.10546875 264.5 C264.20407032 272.65811107 263.53926689 280.81045542 263 289 C262.30605557 299.53854591 261.28838622 310.00599947 260.10546875 320.5 C259.20407032 328.65811107 258.53926689 336.81045542 258 345 C257.30712396 355.52232082 256.29412795 365.97410451 255.10986328 376.45166016 C254.02339848 386.26582818 253.27782365 396.08819666 252.64648438 405.94140625 C252.57494141 407.04097656 252.50339844 408.14054687 252.4296875 409.2734375 C252.37022949 410.23685059 252.31077148 411.20026367 252.24951172 412.19287109 C251.98533631 415.16497373 251.50295916 418.05991339 251 421 C250.82762694 423.39407023 250.68422206 425.79032073 250.5625 428.1875 C250.24274228 433.87592465 249.76465945 439.5253293 249.125 445.1875 C248.03334995 454.94090463 247.27338244 464.71744763 246.5 474.5 C245.7066061 484.52301321 244.90747963 494.53263643 243.76953125 504.5234375 C242.6483917 514.70559012 241.93026213 524.93044413 241.140625 535.14257812 C240.54159958 542.81240544 239.87044465 550.46491881 239.0390625 558.11328125 C237.78944272 569.62112704 236.83866485 581.15280442 235.875 592.6875 C235.69158664 594.86524958 235.50799389 597.04298405 235.32421875 599.22070312 C234.88075212 604.48029712 234.43947013 609.74007064 234 615 C216.36222204 620.36995193 198.63532175 625.30144568 180.83074951 630.08462524 C166.0581336 634.05603302 151.32484273 638.14220801 136.625 642.375 C124.90808308 645.74714341 113.1880066 649.07780143 101.40429688 652.21069336 C90.12507039 655.21556655 78.87529248 658.32631939 67.625 661.4375 C66.5985437 661.72123474 65.5720874 662.00496948 64.51452637 662.29730225 C51.31343171 665.94845246 38.12101819 669.62538725 24.97314453 673.46459961 C16.68481907 675.86762167 8.39463986 677.90134004 0 680 C-0.33 649.64 -0.66 619.28 -1 588 C22.67897727 581.23457792 22.67897727 581.23457792 32 578.875 C38.89190751 577.10502242 45.69925226 575.21046094 52.48046875 573.05078125 C57.22567749 571.63406521 62.01586966 570.41691521 66.8125 569.1875 C74.92271714 567.10686838 82.97254148 564.87981598 91 562.5 C99.99924508 559.83208871 109.0368555 557.38896001 118.12890625 555.05859375 C123.95893784 553.55667425 129.70141673 551.89316487 135.4375 550.0625 C141.42251805 548.27749462 147.48209621 546.7747752 153.53076172 545.22192383 C159.9110265 543.57399559 166.20788188 541.79689314 172.4765625 539.76171875 C174.97086583 539.00879437 177.44371363 538.4937251 180 538 C183.56296034 499.86471218 187.05563466 461.72523882 190.3125 423.5625 C193.1755023 390.0183157 196.2291703 356.49321861 199.32611847 322.96988678 C202.20520464 291.7999343 205.02517896 260.62674165 207.6875 229.4375 C210.61234663 195.17420912 213.71565986 160.92906995 216.91514587 126.69035339 C217.491712 120.51519467 218.06219494 114.3396825 218.60693359 108.16162109 C218.69778732 107.13626755 218.78864105 106.110914 218.88224792 105.05448914 C219.0450859 103.20738097 219.20570864 101.36007533 219.36347961 99.51252747 C219.43390976 98.7145726 219.5043399 97.91661774 219.5769043 97.09448242 C219.66430122 96.07882454 219.66430122 96.07882454 219.75346375 95.04264832 C220.03913071 92.67578688 220.53245162 90.3377419 221 88 C148.07 88 75.14 88 0 88 C0 58.96 0 29.92 0 0 Z " fill="#2965F1" transform="translate(400,59)"/>
<path d="M0 0 C29.37 0 58.74 0 89 0 C92.49361188 30.27796961 92.49361188 30.27796961 93.50805664 42.84790039 C93.69267412 45.12635643 93.8860851 47.40396537 94.08007812 49.68164062 C94.67361441 56.79862019 95.1703868 63.85186813 95 71 C95.804375 71.13535156 96.60875 71.27070312 97.4375 71.41015625 C106.66772633 73.10034024 115.54407737 75.54852032 124.53051758 78.23828125 C131.7084674 80.37152755 138.9129914 82.28792774 146.1875 84.0625 C154.63536575 86.12451259 163.0101224 88.35089029 171.34838867 90.82055664 C179.19271058 93.12530209 187.03683252 95.00920813 195 97 C194.67 127.36 194.34 157.72 194 189 C188.33023031 188.05503838 182.92389162 186.76974738 177.375 185.3125 C176.36171631 185.04775879 175.34843262 184.78301758 174.30444336 184.51025391 C166.84057103 182.5381375 159.44980481 180.37374156 152.06982422 178.1105957 C147.07622525 176.58974065 142.07530661 175.21909696 137 174 C130.05604262 172.32001031 123.25213416 170.30141076 116.421875 168.2109375 C111.30751155 166.65780259 106.19520222 165.25690376 101 164 C94.05604262 162.32001031 87.25213416 160.30141076 80.421875 158.2109375 C75.30751155 156.65780259 70.19520222 155.25690376 65 154 C58.06419965 152.32198379 51.26772186 150.30752782 44.44604492 148.2175293 C37.9039522 146.22931435 31.33069735 144.52247338 24.67578125 142.95703125 C21.81379994 142.21188202 19.06778028 141.38367365 16.27026367 140.44018555 C15.46811935 140.17038376 14.66597504 139.90058197 13.83952332 139.62260437 C12.92895927 139.31441521 12.92895927 139.31441521 12 139 C11.93072296 138.15852921 11.86144592 137.31705841 11.79006958 136.4500885 C9.64700772 110.4675527 7.40851093 84.49373208 5.14379883 58.52154541 C4.78071977 54.35578206 4.4183058 50.18996096 4.0559063 46.02413845 C3.61827275 40.99393313 3.18023764 35.9637628 2.7421875 30.93359375 C2.66081417 29.99874083 2.57944084 29.0638879 2.49560165 28.1007061 C2.26405465 25.44138553 2.03221786 22.78209037 1.80029297 20.12280273 C1.73379547 19.35864044 1.66729797 18.59447815 1.5987854 17.80715942 C1.08050998 11.869986 0.53958173 5.93539903 0 0 Z " fill="#EAEAEA" transform="translate(206,458)"/>
<path d="M0 0 C145.86 0 291.72 0 442 0 C442 1.65 442 3.3 442 5 C441.67 3.68 441.34 2.36 441 1 C368.4 1 295.8 1 221 1 C221 29.71 221 58.42 221 88 C150.38 88 79.76 88 7 88 C1 19 1 19 0 0 Z " fill="#EAEAEB" transform="translate(179,147)"/>
<path d="M0 0 C67.65 0 135.3 0 205 0 C205 29.04 205 58.08 205 88 C139.66 88 74.32 88 7 88 C0 9 0 9 0 0 Z " fill="#EAEAEB" transform="translate(195,326)"/>
<path d="M0 0 C100.98 0 201.96 0 306 0 C304.85237807 21.8048167 304.85237807 21.8048167 303.9140625 31.83984375 C303.81251862 32.95986282 303.71097473 34.0798819 303.60635376 35.23384094 C303.28238482 38.80202248 302.9537363 42.36975486 302.625 45.9375 C302.17262345 50.8995718 301.72277768 55.86187116 301.2734375 60.82421875 C301.16306152 62.04021759 301.05268555 63.25621643 300.93896484 64.50906372 C300.27592449 71.84357593 299.63883107 79.17957604 299.0390625 86.51953125 C298.9694632 87.37058945 298.89986389 88.22164764 298.82815552 89.09849548 C298.51366011 92.96230638 298.20449408 96.82648196 297.90087891 100.69116211 C297.79333602 102.02848643 297.68575411 103.36580761 297.578125 104.703125 C297.48950195 105.83395508 297.40087891 106.96478516 297.30957031 108.12988281 C296.8112504 112.74995288 296.8112504 112.74995288 296 115 C293.76171875 116.08984375 293.76171875 116.08984375 290.6875 116.9375 C289.51058594 117.2675 288.33367187 117.5975 287.12109375 117.9375 C281.64377348 119.3683541 276.14795778 120.72831236 270.64916992 122.07397461 C265.21903133 123.41125895 259.85216877 124.87999733 254.5 126.5 C247.53865584 128.60568318 240.52659915 130.39740594 233.46118164 132.1184082 C227.24155808 133.64845609 221.10246711 135.37312847 214.99414062 137.30078125 C209.30060306 139.05263896 204.00844468 139.90755551 198 141 C198 94.8 198 48.6 198 1 C132.66 1 67.32 1 0 1 C0 0.67 0 0.34 0 0 Z " fill="#2A65F0" transform="translate(202,414)"/>
<path d="M0 0 C111.21 0 222.42 0 337 0 C335.87454633 18.00725872 335.87454633 18.00725872 335.3515625 24.1628418 C335.29450134 24.8398967 335.23744019 25.5169516 335.1786499 26.21452332 C334.99594019 28.37624952 334.81063882 30.53774228 334.625 32.69921875 C334.49422686 34.23378356 334.36353189 35.76835503 334.23291016 37.30293274 C333.96185815 40.48192973 333.68941348 43.66080354 333.41601562 46.83959961 C333.06651445 50.9053743 332.72132643 54.97150282 332.37722778 59.03773785 C332.10982232 62.19062693 331.83980395 65.34328818 331.56903076 68.49588966 C331.44056464 69.99607585 331.31298856 71.49633855 331.18634033 72.99667931 C331.00975195 75.08486216 330.82954986 77.17270337 330.6484375 79.26049805 C330.54708496 80.44467819 330.44573242 81.62885834 330.34130859 82.84892273 C330 86 330 86 329 91 C290.72 91 252.44 91 213 91 C213 61.3 213 31.6 213 1 C142.71 1 72.42 1 0 1 C0 0.67 0 0.34 0 0 Z " fill="#2C66F0" transform="translate(187,235)"/>
</svg>
