<?xml version="1.0" encoding="UTF-8"?>
<svg version="1.1" xmlns="http://www.w3.org/2000/svg" width="1400" height="1400">
<path d="M0 0 C3.96022508 0.0016513 7.92044508 -0.00252272 11.88066847 -0.00590918 C18.8053256 -0.01103557 25.72997576 -0.0124852 32.6546346 -0.01145306 C42.95278096 -0.00992188 53.25091964 -0.0141037 63.5490645 -0.01932769 C83.01743615 -0.02897815 102.48580515 -0.03181108 121.95417891 -0.03238475 C136.99542229 -0.03284506 152.03666464 -0.03490739 167.07790769 -0.03808537 C171.41437279 -0.03898298 175.75083789 -0.03987279 180.08730299 -0.04076025 C181.1655008 -0.0409813 182.2436986 -0.04120235 183.35456907 -0.04143009 C213.66631192 -0.04758092 243.97805441 -0.051531 274.28979791 -0.05108681 C275.43168661 -0.05107124 276.57357532 -0.05105566 277.75006671 -0.05103961 C283.53704437 -0.0509565 289.32402203 -0.05085746 295.11099969 -0.0507549 C296.83483089 -0.05072498 296.83483089 -0.05072498 298.59348697 -0.05069446 C300.91749073 -0.05065402 303.24149448 -0.05061222 305.56549824 -0.05056907 C341.70623861 -0.0499566 377.84696958 -0.057459 413.98770726 -0.07114163 C454.63536145 -0.08652438 495.28300947 -0.09510652 535.93066675 -0.09417841 C540.27058976 -0.09410378 544.61051276 -0.09405507 548.95043576 -0.09402409 C550.01895434 -0.09401244 551.08747292 -0.09400078 552.18837084 -0.09398878 C569.33403711 -0.09395809 586.47969519 -0.10032581 603.62535902 -0.10895636 C620.87811829 -0.11746077 638.13086564 -0.11840106 655.38362585 -0.11184704 C665.6131918 -0.10816985 675.84272143 -0.10992853 686.07228348 -0.11978938 C692.92864281 -0.12583614 699.78497613 -0.12444241 706.64133431 -0.11731888 C710.53245306 -0.1134765 714.42350211 -0.1125459 718.31461565 -0.12077623 C742.8926402 -0.16933679 767.87371086 -0.05492655 792.12515844 4.38466892 C793.35806615 4.60227878 794.59097387 4.81988864 795.86124242 5.04409274 C848.44376327 14.609178 898.99006055 36.46542995 940.20523656 70.85000095 C941.74210636 72.12797328 943.30084029 73.3795002 944.85953344 74.63076267 C953.06106846 81.32439772 960.56447186 88.738323 968.06265844 96.19716892 C968.83074834 96.95735828 968.83074834 96.95735828 969.61435521 97.732905 C976.46264807 104.52668504 982.78063247 111.53983158 988.75015844 119.13466892 C989.31323705 119.83841647 989.87631566 120.54216403 990.45645726 121.26723727 C1027.36018235 167.58901026 1050.63429348 223.3514367 1057.75015844 282.13466892 C1057.83218922 282.7892083 1057.91422001 283.44374769 1057.99873658 284.11812161 C1058.8320847 291.43848145 1058.89292888 298.69472015 1058.88437951 306.056357 C1058.88633584 307.45397403 1058.88872597 308.85159052 1058.89150748 310.24920615 C1058.8978756 314.08333017 1058.89807167 317.91743315 1058.89723007 321.75156144 C1058.89740021 325.92564236 1058.90331349 330.09971588 1058.90847094 334.27379307 C1058.91778072 342.55005738 1058.92171625 350.82631635 1058.9239899 359.10258525 C1058.9269563 369.01778484 1058.93565639 378.93297736 1058.94440418 388.84817324 C1058.96523405 412.81565581 1058.97571695 436.78313959 1058.98453379 460.7506291 C1058.98874326 472.09608371 1058.99396491 483.44153779 1058.99921832 494.78699196 C1059.0171092 533.64582205 1059.032103 572.5046523 1059.03953851 611.3634859 C1059.04001326 613.80248381 1059.04048915 616.24148172 1059.04096617 618.68047963 C1059.04132074 620.49471826 1059.04132074 620.49471826 1059.04168246 622.34560817 C1059.04288363 628.47321175 1059.04409909 634.60081534 1059.04532445 640.72841892 C1059.0455646 641.9444486 1059.04580475 643.16047829 1059.04605218 644.41335736 C1059.05393943 683.81132804 1059.07735906 723.20926855 1059.1098804 762.60722605 C1059.14422312 804.28807182 1059.16389386 845.96889995 1059.16718275 887.6497601 C1059.16760027 892.23079182 1059.16807982 896.81182354 1059.16860593 901.39285526 C1059.16872912 902.52078466 1059.16885231 903.64871405 1059.16897924 904.81082313 C1059.17130596 922.91937368 1059.18693657 941.02788906 1059.20744778 959.13642709 C1059.2277624 977.36151191 1059.23315655 995.58655474 1059.22367714 1013.81164879 C1059.21848373 1024.62109469 1059.22423678 1035.43040024 1059.24621181 1046.23982578 C1059.25981597 1053.48303146 1059.258559 1060.72614156 1059.24580986 1067.96934841 C1059.2389764 1072.08163417 1059.23802183 1076.19365355 1059.25536995 1080.30591446 C1059.35583016 1105.67800052 1057.68569278 1130.57590983 1051.56265844 1155.32216892 C1051.11829442 1157.15775363 1051.11829442 1157.15775363 1050.66495336 1159.03042087 C1039.73556111 1202.83542499 1019.7233896 1243.69131352 991.75015844 1279.13466892 C991.04890844 1280.02798923 990.34765844 1280.92130954 989.62515844 1281.84170017 C975.60163516 1299.34606226 959.54793356 1316.47149042 941.75015844 1330.13466892 C940.45024209 1331.18329777 939.15222495 1332.23428325 937.85562719 1333.28701267 C882.79199275 1377.61700731 813.94983895 1400.89356454 743.62811327 1400.64853913 C739.37038534 1400.63823866 735.11271228 1400.65149169 730.85499252 1400.66151246 C723.41896204 1400.67585443 715.98304806 1400.67558621 708.54701245 1400.66532382 C697.48881203 1400.65010449 686.43070867 1400.6579749 675.37250876 1400.67015705 C655.61501882 1400.6911547 635.85758082 1400.68942059 616.10008602 1400.6778414 C598.8094318 1400.66775835 581.51879656 1400.66516206 564.22814 1400.66993198 C563.07887361 1400.67023752 561.92960722 1400.67054306 560.74551457 1400.67085786 C556.07965389 1400.67210332 551.41379321 1400.67337693 546.74793255 1400.67469691 C503.02534372 1400.68691852 459.30278786 1400.67586192 415.58020411 1400.65430932 C376.7799043 1400.63532851 337.97965701 1400.63702708 299.17935765 1400.65615329 C255.53405766 1400.67759615 211.88878677 1400.68605159 168.24348224 1400.67370424 C163.58638046 1400.67242147 158.92927866 1400.6711701 154.27217687 1400.66993198 C153.12557453 1400.66961567 151.97897218 1400.66929936 150.79762432 1400.66897346 C133.52262381 1400.66443361 116.24764442 1400.66972591 98.97264684 1400.67985019 C79.3198805 1400.69131094 59.66717396 1400.68837747 40.01441503 1400.66672721 C29.03075606 1400.6550246 18.04722677 1400.65415349 7.0635713 1400.66931191 C-0.29010131 1400.6783369 -7.6436708 1400.67260007 -14.99732823 1400.65529284 C-19.17569306 1400.64585593 -23.35380195 1400.64235792 -27.53215795 1400.65691677 C-46.4318033 1400.71799869 -64.62669687 1399.74482172 -83.24984156 1396.13466892 C-84.34461478 1395.92917245 -84.34461478 1395.92917245 -85.46150463 1395.71952453 C-89.05937824 1395.04398195 -92.62584512 1394.29416162 -96.18734156 1393.44716892 C-97.23978053 1393.19862155 -98.29221949 1392.95007419 -99.37655055 1392.69399509 C-149.29978801 1380.46134432 -196.08150537 1355.506631 -234.24984156 1321.13466892 C-235.08853785 1320.38056735 -235.08853785 1320.38056735 -235.9441775 1319.61123142 C-245.88954039 1310.6290584 -255.65487656 1301.43867136 -264.24984156 1291.13466892 C-264.70198024 1290.59632419 -265.15411891 1290.05797946 -265.61995875 1289.50332126 C-311.74256987 1234.40669411 -341.48307789 1163.71578811 -341.38126933 1091.23772678 C-341.38292234 1089.85509074 -341.38501014 1088.47245516 -341.38748943 1087.08982035 C-341.39302249 1083.30197296 -341.39238987 1079.51414831 -341.39071184 1075.72629818 C-341.38997776 1071.60068985 -341.39501068 1067.47508778 -341.39928686 1063.34948215 C-341.40685094 1055.17179878 -341.40905911 1046.99412194 -341.40961592 1038.81643544 C-341.41053115 1029.01856582 -341.4172035 1019.22070221 -341.42396274 1009.42283519 C-341.44000996 985.74161756 -341.4459249 962.06040059 -341.45071149 938.3791785 C-341.45304905 927.17001436 -341.45665192 915.96085073 -341.46040686 904.75168699 C-341.47324221 866.36105804 -341.48396064 827.97042936 -341.48740947 789.57979831 C-341.4876311 787.17055449 -341.48785288 784.76131067 -341.48807482 782.35206684 C-341.48829546 779.93708556 -341.48851594 777.52210427 -341.48873627 775.10712299 C-341.48917881 770.26246382 -341.48962593 765.41780465 -341.49007594 760.57314548 C-341.49018533 759.37195483 -341.49029472 758.17076417 -341.49040743 756.9331738 C-341.49403608 718.00594078 -341.50994898 679.07872641 -341.5332663 640.15150052 C-341.55788883 598.96977011 -341.57158346 557.78805035 -341.57277738 516.60631236 C-341.57294883 512.08123899 -341.57316425 507.55616562 -341.57341182 503.03109226 C-341.57346758 501.91693859 -341.57352335 500.80278493 -341.57358081 499.65486903 C-341.57472925 481.76057975 -341.58573374 463.86630968 -341.60029887 445.97202687 C-341.61469948 427.96780102 -341.61788081 409.96359966 -341.60985889 391.95936963 C-341.60541916 381.27817496 -341.60919653 370.5970596 -341.6250974 359.91587543 C-341.63490809 352.76202024 -341.6336116 345.6082201 -341.62366117 338.45436532 C-341.61831259 334.39070435 -341.61741601 330.32719471 -341.63016989 326.26354679 C-341.7002743 302.4322262 -340.64272622 278.80782874 -335.49984156 255.44716892 C-335.11578151 253.6566611 -335.11578151 253.6566611 -334.72396266 251.82998142 C-324.12998673 203.75797973 -303.18787516 157.62099875 -271.53450953 119.67959079 C-270.2565372 118.14272099 -269.00501028 116.58398706 -267.75374781 115.02529392 C-261.06011276 106.82375889 -253.64618748 99.32035549 -246.18734156 91.82216892 C-245.68054866 91.31010898 -245.17375575 90.79804904 -244.65160548 90.27047214 C-237.8580601 83.42241582 -230.84679646 77.10114356 -223.24984156 71.13466892 C-222.170292 70.27409885 -222.170292 70.27409885 -221.06893336 69.39614352 C-156.59623488 18.26962963 -81.03886046 -0.05660086 0 0 Z " fill="#19374C" transform="translate(341.24984156433493,-0.13466891553252935)"/>
<path d="M0 0 C2.83162571 1.36537297 4.9026394 2.65302645 7.12934875 4.8821106 C7.72213623 5.47070358 8.31492371 6.05929657 8.92567444 6.66572571 C9.56419846 7.30986923 10.20272247 7.95401276 10.8605957 8.61767578 C11.54243927 9.297621 12.22428284 9.97756622 12.92678833 10.67811584 C15.18136904 12.92899011 17.42866275 15.18699031 19.67578125 17.4453125 C21.24476745 19.01549135 22.81412409 20.58530012 24.38383484 22.15475464 C27.67623334 25.44871812 30.96524366 28.74601545 34.25170898 32.04589844 C38.44955177 36.26066801 42.65388329 40.46888877 46.86057758 44.67482185 C50.10464861 47.91916595 53.34609764 51.16611909 56.5866909 54.41393661 C58.13493865 55.96535192 59.6837799 57.51617519 61.23324013 59.06637955 C63.40841848 61.24374545 65.58026119 63.42438566 67.7512207 65.60595703 C68.69989769 66.55395424 68.69989769 66.55395424 69.66773987 67.52110291 C72.56650236 70.44042795 75.36236529 73.39147013 78.02557373 76.52755737 C83.92746013 83.34410978 90.45953355 89.58978434 96.83959961 95.953125 C98.34821705 97.46146006 99.85661372 98.97001597 101.36480713 100.47877502 C105.44260538 104.55685925 109.52347139 108.63186091 113.6049087 112.70630264 C117.87614239 116.97126942 122.14452934 121.23908331 126.41322327 125.5065918 C134.48936741 133.57963246 142.56805648 141.6501214 150.64767033 149.71968937 C159.84915346 158.90998083 169.04778472 168.10312448 178.24618137 177.29650497 C197.1609566 196.20083806 216.07929794 215.10159901 235 234 C233.33762881 238.33452638 230.03897438 241.22960465 226.80830383 244.42547607 C226.16633267 245.06845052 225.52436151 245.71142497 224.86293668 246.37388349 C222.70671946 248.53105464 220.54342934 250.68099064 218.38012695 252.83105469 C216.83412268 254.37485806 215.28856562 255.91910939 213.74342346 257.46377563 C210.41236807 260.79189499 207.07817673 264.11682941 203.74154091 267.43935394 C198.46264052 272.69600151 193.19082479 277.9597155 187.91996765 283.22442627 C180.52591998 290.60837908 173.12874778 297.98918807 165.72875977 305.3671875 C165.25920981 305.83534414 164.78965985 306.30350079 164.30588111 306.785844 C163.83577096 307.25455861 163.36566082 307.72327322 162.88130492 308.2061913 C147.94359064 323.09959698 133.01140509 337.99854121 118.08448571 352.90276647 C112.84719754 358.1316615 107.60711347 363.35773362 102.36474478 368.58153486 C99.09715863 371.83844635 95.8316281 375.09741322 92.56659508 378.356884 C91.05623979 379.86378073 89.54501403 381.3698056 88.03283691 382.87487411 C85.96174981 384.93644271 83.89383258 387.00114229 81.82661438 389.06658936 C80.93709083 389.94969729 80.93709083 389.94969729 80.0295971 390.85064578 C77.11971747 393.7644408 74.33248793 396.73375723 71.64500713 399.8545723 C67.59152635 404.53718742 63.24048483 408.8920235 58.85327148 413.26025391 C57.95384795 414.1598263 57.05442442 415.05939869 56.12774563 415.98623085 C53.65096584 418.46330402 51.1711009 420.93726765 48.69069624 423.41071033 C46.00851935 426.08647858 43.32927767 428.76518305 40.64968872 431.44354248 C36.01160979 436.07874222 31.37176093 440.71216401 26.73074341 445.34442139 C20.01258383 452.04999386 13.29769361 458.75883275 6.58367765 465.46855378 C-4.32169003 476.36686254 -15.22892395 487.26330135 -26.13769531 498.15820312 C-26.78983588 498.80951588 -27.44197644 499.46082863 -28.11387885 500.13187814 C-33.40482881 505.41608387 -38.69586936 510.70019889 -43.98691368 515.98431015 C-48.61208637 520.60342998 -53.23722288 525.22258604 -57.86230469 529.84179688 C-58.51364683 530.49231089 -59.16498897 531.1428249 -59.83606875 531.81305146 C-70.70543458 542.66872026 -81.57282838 553.52636115 -92.43882275 564.38540459 C-99.13428278 571.07639065 -105.83151284 577.76559559 -112.53105617 584.45249319 C-117.12216592 589.03516177 -121.71149325 593.61961023 -126.29943681 598.20544863 C-128.94406493 600.84873519 -131.58950811 603.49119234 -134.2371788 606.13143158 C-137.11193572 608.99815033 -139.98276839 611.86876792 -142.85327148 614.73974609 C-143.68411538 615.56699503 -144.51495928 616.39424397 -145.37098026 617.24656105 C-149.56953773 621.45255477 -153.59394524 625.74077697 -157.47119057 630.24451351 C-159.46421277 632.53304175 -161.56726013 634.69016833 -163.71409607 636.83435059 C-165.01589561 638.13821213 -165.01589561 638.13821213 -166.34399414 639.46841431 C-167.27260254 640.39342743 -168.20121094 641.31844055 -169.15795898 642.27148438 C-170.16411991 643.27736262 -171.17005948 644.28346232 -172.17579651 645.2897644 C-174.8838059 647.99805859 -177.59486893 650.70327661 -180.30652499 653.40791893 C-183.14838037 656.24348751 -185.98737002 659.08192243 -188.82667542 661.92004395 C-194.193496 667.28376684 -199.56285869 672.64493734 -204.93315798 678.00517702 C-211.05127448 684.1120837 -217.16652333 690.22185855 -223.28154266 696.33186626 C-235.85119191 708.89108652 -248.42440638 721.44673201 -261 734 C-266.83026328 729.15847001 -272.18768093 723.95046551 -277.5355072 718.58474731 C-278.48591478 717.63477646 -279.43654235 716.68502566 -280.38736922 715.73547447 C-282.98476027 713.1403085 -285.57904134 710.54205334 -288.172804 707.94326162 C-290.97593462 705.13579805 -293.78196962 702.33123995 -296.58764648 699.52632141 C-301.44339266 694.67109867 -306.29730978 689.81405361 -311.14997673 684.95575333 C-318.16605479 677.93153581 -325.18490432 670.91009301 -332.20442552 663.88931654 C-343.59405225 652.49750314 -354.98144569 641.10346004 -366.36743164 629.70800781 C-377.42550228 618.64075311 -388.48462647 607.57455294 -399.54516602 596.50976562 C-400.22734894 595.82731998 -400.90953186 595.14487433 -401.61238699 594.44174851 C-405.03482765 591.01800279 -408.45728899 587.59427774 -411.87976062 584.17056298 C-440.25638195 555.78358101 -468.62937767 527.39297744 -497 499 C-491.48366764 492.28196004 -485.35115513 486.21739231 -479.2021637 480.08863831 C-477.9931924 478.87994727 -476.78444305 477.67103421 -475.57589573 476.46191925 C-472.26454369 473.15027244 -468.95009179 469.84174353 -465.63512361 466.53371704 C-462.05654484 462.96152404 -458.48087945 459.38641695 -454.90487671 455.81164551 C-448.71054226 449.62019542 -442.51443518 443.43052394 -436.3171711 437.2420063 C-427.34888341 428.28628265 -418.3838443 419.32731262 -409.41968667 410.36745524 C-394.8644714 395.81930504 -380.30739007 381.27302369 -365.7487793 366.72827148 C-364.87775835 365.85807835 -364.0067374 364.98788522 -363.10932188 364.09132259 C-356.04262375 357.03136859 -348.97583529 349.971505 -341.90904236 342.91164589 C-335.73318343 336.74183924 -329.55736035 330.57199672 -323.3815918 324.40209961 C-322.51193626 323.53327219 -321.64228071 322.66444478 -320.74627198 321.76928926 C-306.24282191 307.27952799 -291.74133744 292.78780107 -277.24125332 278.29467148 C-268.30022811 269.35812545 -259.35742867 260.42336196 -250.41233014 251.49089312 C-244.28313661 245.37012965 -238.15571534 239.24759581 -232.02968163 233.12366981 C-228.49596806 229.59130024 -224.96143084 226.05976503 -221.42468452 222.53043175 C-218.18477713 219.2972895 -214.94720177 216.06183069 -211.711434 212.82454561 C-210.54279347 211.65617574 -209.37330697 210.48865126 -208.2028733 209.3220777 C-202.84064767 203.97671193 -197.56292088 198.62010235 -192.63679916 192.86347622 C-189.55203992 189.35151481 -186.2177769 186.08418028 -182.90711975 182.78686523 C-182.12118028 182.00007133 -181.3352408 181.21327744 -180.52548498 180.4026413 C-177.91006238 177.78558092 -175.291099 175.17209388 -172.67211914 172.55859375 C-170.78912191 170.67587878 -168.90632426 168.79296619 -167.02377319 166.9098053 C-162.9799708 162.86548035 -158.93435184 158.82298008 -154.88746834 154.78173828 C-149.03646619 148.93888761 -143.18825049 143.09325438 -137.34069579 137.24695373 C-127.85172743 127.76017016 -118.36053134 118.27561863 -108.86791992 108.79248047 C-99.6505977 99.58434718 -90.43433374 90.3751568 -81.21948242 81.16455078 C-80.65080533 80.59613641 -80.08212824 80.02772205 -79.49621851 79.442083 C-76.64313811 76.59030771 -73.79007841 73.7385117 -70.937029 70.8867054 C-47.29456097 47.25459217 -23.64847159 23.62610551 0 0 Z " fill="#71C2B4" transform="translate(848,467)"/>
<path d="M0 0 C3.34789337 1.45643959 5.54283071 3.29395688 8.1154213 5.86932564 C8.93153326 6.68145551 9.74764523 7.49358538 10.58848786 8.33032525 C11.4795365 9.22719957 12.37058514 10.12407389 13.28863525 11.04812622 C14.24861442 12.00723333 15.20903294 12.96590086 16.16985297 13.92416561 C18.81049399 16.56032915 21.44484919 19.20269752 24.0782361 21.84610486 C26.91847752 24.69497268 29.76448555 27.53806922 32.60980225 30.38186646 C37.53926908 35.31028393 42.46505703 40.24235385 47.38837433 45.17691422 C54.50669341 52.31147836 61.63052016 59.44052203 68.7557089 66.56822477 C80.31533829 78.13223282 91.87049308 89.70070136 103.42285156 101.27197266 C114.64577038 112.51324583 125.87078512 123.75241925 137.09863281 134.98876953 C137.79056489 135.68122706 138.48249697 136.37368459 139.19539669 137.08712567 C142.66658428 140.56092331 146.1378132 144.03467965 149.60906267 147.50841546 C178.4124523 176.33254293 207.20858799 205.16390881 236 234 C234.20713647 237.85904799 231.75125575 240.51206431 228.7434082 243.46777344 C228.20816025 244.00170715 227.67291229 244.53564087 227.1214447 245.08575439 C225.35244303 246.84827111 223.57657166 248.60370068 221.80078125 250.359375 C220.56436563 251.58951481 219.32846735 252.8201748 218.09306335 254.05133057 C214.83666546 257.2944252 211.57475826 260.53191656 208.31121826 263.76782227 C203.10477523 268.93117903 197.9049008 274.10112663 192.70845604 279.27454376 C190.90134005 281.07152955 189.09079611 282.86500579 187.27986145 284.65814209 C186.15430848 285.77685618 185.02887036 286.89568583 183.90356445 288.01464844 C183.40823212 288.50324341 182.91289978 288.99183838 182.40255737 289.49523926 C179.76645107 292.12298561 177.27051654 294.82167362 174.84963417 297.64952469 C170.899294 302.17861328 166.7078348 306.42853189 162.45155334 310.66870117 C161.19914019 311.92239596 161.19914019 311.92239596 159.92142576 313.20141792 C157.62452289 315.49967444 155.32541154 317.7956937 153.02531374 320.09075189 C150.53756528 322.57415635 148.05273376 325.06047657 145.5675354 327.5464325 C141.26836211 331.84612853 136.96737093 336.14399905 132.66511726 340.44061279 C126.44488734 346.65269382 120.2274413 352.86755507 114.01065748 359.08308458 C103.92271738 369.16883949 93.83254908 379.25236214 83.7409668 389.33447266 C73.94161384 399.12463772 64.14331833 408.91585914 54.34643555 418.70849609 C53.74191451 419.31275441 53.13739347 419.91701272 52.51455361 420.53958189 C49.48166436 423.57116605 46.44879581 426.60277091 43.41593754 429.63438606 C18.28049949 454.75946807 -6.85856009 479.88092382 -32 505 C-33.3464141 500.96075769 -32.19909661 499.25116723 -30.6875 495.3125 C-30.21667763 494.03591866 -29.74790584 492.75857905 -29.28125 491.48046875 C-28.8584375 490.33191406 -28.435625 489.18335938 -28 488 C-22.89582907 474.04009252 -25.63187265 456.07535512 -31.52734375 442.875 C-39.69414473 426.93132487 -54.28038206 414.57439313 -66.78881836 402.08178711 C-68.59004034 400.27920846 -70.39104988 398.4764175 -72.19186401 396.6734314 C-76.55488042 392.30634501 -80.92021235 387.94158542 -85.28671896 383.57798909 C-88.83380831 380.0331655 -92.37991145 376.4873581 -95.92532539 372.94085884 C-96.43141965 372.43461136 -96.9375139 371.92836387 -97.45894434 371.40677555 C-98.4872123 370.37818785 -99.51547802 369.34959792 -100.54374153 368.32100577 C-110.15895543 358.70294812 -119.77721873 349.08794466 -129.39654625 339.47400142 C-137.65258101 331.22244457 -145.90597528 322.96825426 -154.1574707 314.7121582 C-163.75131413 305.11296819 -173.34677097 295.51539575 -182.94482523 285.92041594 C-183.9670139 284.89854581 -184.98920049 283.8766736 -186.01138496 282.85479927 C-186.76572876 282.10068689 -186.76572876 282.10068689 -187.53531183 281.33133991 C-191.08205607 277.78545976 -194.62763731 274.23841925 -198.17277336 270.69093132 C-202.93514441 265.92547008 -207.70014597 261.16265476 -212.46696091 256.40163803 C-214.21985221 254.65007399 -215.97188383 252.89764916 -217.72301292 251.14432335 C-220.10393523 248.76068862 -222.48788358 246.38012336 -224.87266541 244.00035095 C-225.92278357 242.9468867 -225.92278357 242.9468867 -226.99411625 241.87214035 C-227.63000944 241.2388549 -228.26590264 240.60556945 -228.92106533 239.95309353 C-229.4713378 239.40298341 -230.02161027 238.8528733 -230.58855766 238.28609318 C-231.99081926 236.89131913 -231.99081926 236.89131913 -234 236 C-232.54356041 232.65210663 -230.70604312 230.45716929 -228.13067436 227.8845787 C-227.31854449 227.06846674 -226.50641462 226.25235477 -225.66967475 225.41151214 C-224.77280043 224.5204635 -223.87592611 223.62941486 -222.95187378 222.71136475 C-221.99276667 221.75138558 -221.03409914 220.79096706 -220.07583439 219.83014703 C-217.43967085 217.18950601 -214.79730248 214.55515081 -212.15389514 211.9217639 C-209.30502732 209.08152248 -206.46193078 206.23551445 -203.61813354 203.39019775 C-198.68971607 198.46073092 -193.75764615 193.53494297 -188.82308578 188.61162567 C-181.68852164 181.49330659 -174.55947797 174.36947984 -167.43177523 167.2442911 C-155.86776718 155.68466171 -144.29929864 144.12950692 -132.72802734 132.57714844 C-121.48675417 121.35422962 -110.24758075 110.12921488 -99.01123047 98.90136719 C-98.31877294 98.20943511 -97.62631541 97.51750303 -96.91287433 96.80460331 C-93.43907669 93.33341572 -89.96532035 89.8621868 -86.49158454 86.39093733 C-57.66745707 57.5875477 -28.83609119 28.79141201 0 0 Z " fill="#FEFEFE" transform="translate(585,209)"/>
</svg>
