<?xml version="1.0" encoding="UTF-8"?>
<svg version="1.1" xmlns="http://www.w3.org/2000/svg" width="256" height="256">
<path d="M0 0 C0.85309578 0.00291284 1.70619157 0.00582568 2.58513874 0.00882679 C3.48437468 0.00797237 4.38361063 0.00711794 5.31009614 0.00623763 C8.34730764 0.00458006 11.38446486 0.01010869 14.42167133 0.01555592 C16.58927894 0.01583776 18.75688665 0.01568012 20.92449421 0.01511341 C26.82921365 0.01482531 32.73391296 0.02072414 38.63862771 0.02768737 C44.8019392 0.03391875 50.9652511 0.03452454 57.12856525 0.03571278 C68.80872244 0.03882674 80.48887032 0.04704099 92.16902339 0.05706227 C105.4626257 0.06822141 118.75622775 0.07373335 132.04983383 0.0787577 C159.40417221 0.08922355 186.7585023 0.10682423 214.11283344 0.12908131 C215.78864754 3.48070952 214.81504759 7.19264306 214.47381061 10.83553272 C214.39299399 11.74787375 214.31217737 12.66021478 214.22891176 13.6002025 C213.95498321 16.67627316 213.67266325 19.75151701 213.39042133 22.82683522 C213.19302464 25.02410154 212.99614232 27.22141413 212.79973835 29.41876942 C212.26361361 35.40034641 211.7202566 41.38124731 211.17564553 47.36205679 C210.60826186 53.60640095 210.04746689 59.85133659 209.48598713 66.09621388 C208.5422056 76.58309795 207.59433576 87.06960633 206.64335102 97.55583912 C205.66372618 108.35800201 204.68655255 119.16038199 203.71268696 129.96306568 C203.65268432 130.62864025 203.59268169 131.29421482 203.53086079 131.97995831 C203.22986851 135.31886131 202.92892455 138.65776866 202.62800461 141.99667817 C200.13033031 169.70814839 197.62430915 197.41885874 195.11283344 225.12908131 C187.66204347 228.38780981 187.66204347 228.38780981 184.26758808 229.31832081 C183.25429432 229.60000614 183.25429432 229.60000614 182.22052997 229.88738209 C181.14797458 230.17742115 181.14797458 230.17742115 180.05375141 230.47331959 C179.28047504 230.68672993 178.50719867 230.90014027 177.71048969 231.12001759 C175.17663477 231.81798221 172.64089429 232.50880211 170.10502094 233.19939381 C168.33327767 233.68556866 166.56164232 234.17213696 164.79011005 234.65908009 C161.08747784 235.67573435 157.38397121 236.68911375 153.67972797 237.69988209 C148.93617846 238.99430002 144.19426697 240.29459725 139.45291942 241.59705502 C135.79877077 242.60058043 132.14408902 243.60215166 128.48921055 244.60301548 C126.74044797 245.08191777 124.99177718 245.56115534 123.24320072 246.04073673 C120.80033281 246.71017821 118.35683524 247.37726777 115.91312641 248.04363209 C114.83449833 248.33974385 114.83449833 248.33974385 113.73407978 248.64183766 C111.8637675 249.15039682 109.98849128 249.640606 108.11283344 250.12908131 C106.88385334 250.50143406 106.88385334 250.50143406 105.63004535 250.88130909 C101.88908049 251.24953679 98.59817703 250.19861604 95.03714985 249.178886 C94.23811741 248.95951878 93.43908497 248.74015156 92.61583942 248.51413685 C89.97891163 247.78716051 87.34673347 247.04436683 84.71439594 246.30095631 C82.87766055 245.79022206 81.04069186 245.2803262 79.20350116 244.77123219 C75.35330638 243.70184759 71.50526954 242.62511947 67.65873188 241.54265553 C62.74024901 240.15873892 57.81802358 238.78876838 52.89426082 237.42377049 C49.09949044 236.37088579 45.30619949 235.31275555 41.5133881 234.25283772 C39.69969706 233.74622135 37.88569705 233.24070971 36.07137913 232.73634297 C33.52859661 232.02814834 30.98773264 231.31344825 28.4473061 230.59685475 C27.70421695 230.39100254 26.96112781 230.18515034 26.19552082 229.97306019 C25.49474918 229.77396549 24.79397754 229.5748708 24.0719704 229.36974293 C23.47284651 229.20159958 22.87372261 229.03345623 22.25644344 228.86021763 C19.12849552 227.79334617 16.14062938 226.45324521 13.11283344 225.12908131 C10.65177653 197.84271022 8.19169572 170.55625128 5.73276848 143.26968819 C4.59095644 130.59932382 3.44882819 117.92898811 2.30594867 105.25871998 C1.30951066 94.21193251 0.31367295 83.16509112 -0.68145192 72.11818528 C-1.20810265 66.27205463 -1.73504855 60.42595093 -2.26271397 54.57991177 C-2.76002458 49.07006942 -3.25652851 43.56015496 -3.75243145 38.05018574 C-3.9339327 36.03508513 -4.11572091 34.02001034 -4.29782826 32.00496441 C-4.76905335 26.78985164 -5.2359061 21.57441102 -5.69170028 16.35792524 C-5.81914124 14.90475385 -5.94812646 13.45171682 -6.07887918 11.99883968 C-6.24643407 10.12928043 -6.40640966 8.25904615 -6.56577069 6.38877064 C-6.69724798 4.87846917 -6.69724798 4.87846917 -6.83138138 3.33765656 C-6.84979049 2.60882673 -6.8681996 1.87999689 -6.88716656 1.12908131 C-5.04545961 -0.71262564 -2.45091277 0.00635122 0 0 Z M36.11283344 48.12908131 C36.72747192 59.80721247 37.39733445 71.36322557 38.52298969 82.98455006 C38.63993183 84.22354054 38.75687397 85.46253102 38.87735981 86.73906666 C39.30571177 91.26531444 39.74089239 95.79091391 40.17533344 100.31658131 C41.14470844 110.48470631 42.11408344 120.65283131 43.11283344 131.12908131 C74.46283344 131.12908131 105.81283344 131.12908131 138.11283344 131.12908131 C137.12283344 143.00908131 136.13283344 154.88908131 135.11283344 167.12908131 C129.66783344 168.11908131 129.66783344 168.11908131 124.11283344 169.12908131 C120.74227228 169.94812002 117.39710181 170.78857015 114.05033344 171.69158131 C113.21050922 171.91265553 112.370685 172.13372975 111.50541157 172.36150318 C107.20349425 173.45805465 107.20349425 173.45805465 103.11283344 175.12908131 C101.18114763 174.72835729 99.26871508 174.23337544 97.37064594 173.69548756 C96.22209125 173.37644459 95.07353657 173.05740162 93.89017719 172.72869068 C92.68490375 172.38644459 91.47963032 172.0441985 90.23783344 171.69158131 C87.8667373 171.02159989 85.49438581 170.35604115 83.12064594 169.69548756 C82.06506489 169.39586109 81.00948383 169.09623463 79.92191547 168.78752857 C76.94462943 167.97693872 76.94462943 167.97693872 73.11283344 168.12908131 C72.45283344 160.53908131 71.79283344 152.94908131 71.11283344 145.12908131 C62.53283344 145.45908131 53.95283344 145.78908131 45.11283344 146.12908131 C45.10938096 155.51923597 45.10938096 155.51923597 45.76908344 164.76580006 C45.83567158 165.41611698 45.90225971 166.06643391 45.97086567 166.73645741 C46.17963194 168.7637498 46.39605163 170.79013215 46.61283344 172.81658131 C46.75787883 174.21171024 46.90241338 175.60689239 47.04642719 177.00212818 C47.39689844 180.37833455 47.7524753 183.75391839 48.11283344 187.12908131 C59.81715041 190.57383011 71.56579446 193.85274548 83.36426777 196.95940357 C84.72904861 197.32007415 86.09294106 197.68412476 87.45588154 198.05168873 C89.39752964 198.57421031 91.34303919 199.08231601 93.28861469 199.59001881 C94.97337909 200.03547047 94.97337909 200.03547047 96.69217914 200.48992115 C105.16057641 202.07226817 111.85021822 200.41215061 120.01517719 198.10173756 C121.13348423 197.7933646 122.25179127 197.48499165 123.40398639 197.16727406 C125.75430923 196.51715723 128.10328767 195.86216252 130.45096821 195.20256764 C134.0599841 194.18887064 137.67284085 193.1899518 141.28666157 192.19353443 C143.57140292 191.55961932 145.85591658 190.92488283 148.14017719 190.28923756 C149.22548221 189.98816593 150.31078724 189.68709431 151.42898029 189.3768993 C152.42414158 189.09668431 153.41930286 188.81646931 154.44462055 188.52776295 C155.32427982 188.28127506 156.20393909 188.03478718 157.1102547 187.78082997 C159.08877373 187.30432747 159.08877373 187.30432747 160.11283344 186.12908131 C160.36752771 184.43143796 160.55907618 182.72429655 160.72611469 181.01580006 C160.8378603 179.89060963 160.9496059 178.7654192 161.06473774 177.60613209 C161.18373432 176.35558033 161.3027309 175.10502857 161.42533344 173.81658131 C161.61446308 171.8711443 161.61446308 171.8711443 161.80741352 169.88640553 C162.16867266 166.1525419 162.52180586 162.41794611 162.87272114 158.68309742 C163.12844691 155.96300459 163.38577824 153.24306592 163.64310688 150.52312428 C164.10939182 145.58418005 164.57006025 140.64473596 165.02698749 135.70491749 C165.20842047 133.74630427 165.39088609 131.78778641 165.57441181 129.82936817 C165.83444897 127.04679009 166.08952673 124.26379912 166.34330219 121.48064381 C166.4212804 120.65459141 166.49925861 119.82853901 166.5795998 118.97745472 C166.68535831 117.80074963 166.68535831 117.80074963 166.79325336 116.60027272 C166.85526432 115.92686848 166.91727527 115.25346424 166.98116535 114.55965382 C167.16925164 111.08761005 167.11283344 107.60621582 167.11283344 104.12908131 C134.11283344 104.12908131 101.11283344 104.12908131 67.11283344 104.12908131 C66.78283344 98.18908131 66.45283344 92.24908131 66.11283344 86.12908131 C65.78283344 82.16908131 65.45283344 78.20908131 65.11283344 74.12908131 C99.76283344 74.45908131 134.41283344 74.78908131 170.11283344 75.12908131 C171.58520561 61.65387451 171.58520561 61.65387451 172.11283344 48.12908131 C127.23283344 48.12908131 82.35283344 48.12908131 36.11283344 48.12908131 Z " fill="#E44D24" transform="translate(23.887166559696198,2.8709186911582947)"/>
<path d="M0 0 C0.33 0 0.66 0 1 0 C1 2.97 1 5.94 1 9 C0.67 9 0.34 9 0 9 C0 6.03 0 3.06 0 0 Z " fill="#E04E23" transform="translate(31,174)"/>
<path d="M0 0 C0.33 0 0.66 0 1 0 C1 2.97 1 5.94 1 9 C0.67 9 0.34 9 0 9 C0 6.03 0 3.06 0 0 Z " fill="#E44D25" transform="translate(70,150)"/>
<path d="M0 0 C0.33 0 0.66 0 1 0 C1 2.97 1 5.94 1 9 C0.67 9 0.34 9 0 9 C0 6.03 0 3.06 0 0 Z " fill="#D25236" transform="translate(26,118)"/>
<path d="M0 0 C0.33 0 0.66 0 1 0 C1 2.64 1 5.28 1 8 C0.67 8 0.34 8 0 8 C0 5.36 0 2.72 0 0 Z " fill="#E64B2A" transform="translate(35,219)"/>
<path d="M0 0 C0.33 0 0.66 0 1 0 C1 2.64 1 5.28 1 8 C0.67 8 0.34 8 0 8 C0 5.36 0 2.72 0 0 Z " fill="#E64B29" transform="translate(220,219)"/>
<path d="M0 0 C0.33 0 0.66 0 1 0 C1 2.64 1 5.28 1 8 C0.67 8 0.34 8 0 8 C0 5.36 0 2.72 0 0 Z " fill="#CA5638" transform="translate(221,208)"/>
<path d="M0 0 C0.33 0 0.66 0 1 0 C1 2.64 1 5.28 1 8 C0.67 8 0.34 8 0 8 C0 5.36 0 2.72 0 0 Z " fill="#CF5432" transform="translate(34,208)"/>
<path d="M0 0 C0.33 0 0.66 0 1 0 C1 2.64 1 5.28 1 8 C0.67 8 0.34 8 0 8 C0 5.36 0 2.72 0 0 Z " fill="#E44D23" transform="translate(222,197)"/>
<path d="M0 0 C0.33 0 0.66 0 1 0 C1 2.64 1 5.28 1 8 C0.67 8 0.34 8 0 8 C0 5.36 0 2.72 0 0 Z " fill="#DF4F25" transform="translate(33,197)"/>
<path d="M0 0 C0.33 0 0.66 0 1 0 C1 2.64 1 5.28 1 8 C0.67 8 0.34 8 0 8 C0 5.36 0 2.72 0 0 Z " fill="#CF5533" transform="translate(223,186)"/>
<path d="M0 0 C0.33 0 0.66 0 1 0 C1 2.64 1 5.28 1 8 C0.67 8 0.34 8 0 8 C0 5.36 0 2.72 0 0 Z " fill="#C95738" transform="translate(32,186)"/>
<path d="M0 0 C0.33 0 0.66 0 1 0 C1 2.64 1 5.28 1 8 C0.67 8 0.34 8 0 8 C0 5.36 0 2.72 0 0 Z " fill="#DF4D26" transform="translate(224,174)"/>
<path d="M0 0 C0.33 0 0.66 0 1 0 C1 2.64 1 5.28 1 8 C0.67 8 0.34 8 0 8 C0 5.36 0 2.72 0 0 Z " fill="#E24E24" transform="translate(183,173)"/>
<path d="M0 0 C0.33 0 0.66 0 1 0 C1 2.64 1 5.28 1 8 C0.67 8 0.34 8 0 8 C0 5.36 0 2.72 0 0 Z " fill="#DF4C26" transform="translate(72,173)"/>
<path d="M0 0 C0.33 0 0.66 0 1 0 C1 2.64 1 5.28 1 8 C0.67 8 0.34 8 0 8 C0 5.36 0 2.72 0 0 Z " fill="#D25233" transform="translate(225,163)"/>
<path d="M0 0 C0.33 0 0.66 0 1 0 C1 2.64 1 5.28 1 8 C0.67 8 0.34 8 0 8 C0 5.36 0 2.72 0 0 Z " fill="#CD5333" transform="translate(30,163)"/>
<path d="M0 0 C0.33 0 0.66 0 1 0 C1 2.64 1 5.28 1 8 C0.67 8 0.34 8 0 8 C0 5.36 0 2.72 0 0 Z " fill="#CA563A" transform="translate(184,161)"/>
<path d="M0 0 C0.33 0 0.66 0 1 0 C1 2.64 1 5.28 1 8 C0.67 8 0.34 8 0 8 C0 5.36 0 2.72 0 0 Z " fill="#C85734" transform="translate(71,162)"/>
<path d="M0 0 C0.33 0 0.66 0 1 0 C1 2.64 1 5.28 1 8 C0.67 8 0.34 8 0 8 C0 5.36 0 2.72 0 0 Z " fill="#C95935" transform="translate(161,158)"/>
<path d="M0 0 C0.33 0 0.66 0 1 0 C1 2.64 1 5.28 1 8 C0.67 8 0.34 8 0 8 C0 5.36 0 2.72 0 0 Z " fill="#C85633" transform="translate(94,158)"/>
<path d="M0 0 C0.33 0 0.66 0 1 0 C1 2.64 1 5.28 1 8 C0.67 8 0.34 8 0 8 C0 5.36 0 2.72 0 0 Z " fill="#E24E23" transform="translate(29,152)"/>
<path d="M0 0 C0.33 0 0.66 0 1 0 C1 2.64 1 5.28 1 8 C0.67 8 0.34 8 0 8 C0 5.36 0 2.72 0 0 Z " fill="#DF4F23" transform="translate(226,152)"/>
<path d="M0 0 C0.33 0 0.66 0 1 0 C1 2.64 1 5.28 1 8 C0.67 8 0.34 8 0 8 C0 5.36 0 2.72 0 0 Z " fill="#DE4E2B" transform="translate(185,150)"/>
<path d="M0 0 C0.33 0 0.66 0 1 0 C1 2.64 1 5.28 1 8 C0.67 8 0.34 8 0 8 C0 5.36 0 2.72 0 0 Z " fill="#E24D28" transform="translate(162,147)"/>
<path d="M0 0 C0.33 0 0.66 0 1 0 C1 2.64 1 5.28 1 8 C0.67 8 0.34 8 0 8 C0 5.36 0 2.72 0 0 Z " fill="#CC5634" transform="translate(227,141)"/>
<path d="M0 0 C0.33 0 0.66 0 1 0 C1 2.64 1 5.28 1 8 C0.67 8 0.34 8 0 8 C0 5.36 0 2.72 0 0 Z " fill="#D1543A" transform="translate(28,141)"/>
<path d="M0 0 C0.33 0 0.66 0 1 0 C1 2.64 1 5.28 1 8 C0.67 8 0.34 8 0 8 C0 5.36 0 2.72 0 0 Z " fill="#C9563B" transform="translate(186,139)"/>
<path d="M0 0 C0.33 0 0.66 0 1 0 C1 2.64 1 5.28 1 8 C0.67 8 0.34 8 0 8 C0 5.36 0 2.72 0 0 Z " fill="#CF5532" transform="translate(163,136)"/>
<path d="M0 0 C0.33 0 0.66 0 1 0 C1 2.64 1 5.28 1 8 C0.67 8 0.34 8 0 8 C0 5.36 0 2.72 0 0 Z " fill="#E34C2C" transform="translate(27,130)"/>
<path d="M0 0 C0.33 0 0.66 0 1 0 C1 2.64 1 5.28 1 8 C0.67 8 0.34 8 0 8 C0 5.36 0 2.72 0 0 Z " fill="#E04E2F" transform="translate(228,130)"/>
<path d="M0 0 C0.33 0 0.66 0 1 0 C1 2.64 1 5.28 1 8 C0.67 8 0.34 8 0 8 C0 5.36 0 2.72 0 0 Z " fill="#DE4F2A" transform="translate(187,128)"/>
<path d="M0 0 C0.33 0 0.66 0 1 0 C1 2.64 1 5.28 1 8 C0.67 8 0.34 8 0 8 C0 5.36 0 2.72 0 0 Z " fill="#D35434" transform="translate(229,118)"/>
<path d="M0 0 C0.33 0 0.66 0 1 0 C1 2.64 1 5.28 1 8 C0.67 8 0.34 8 0 8 C0 5.36 0 2.72 0 0 Z " fill="#D15335" transform="translate(188,117)"/>
<path d="M0 0 C0.33 0 0.66 0 1 0 C1 2.64 1 5.28 1 8 C0.67 8 0.34 8 0 8 C0 5.36 0 2.72 0 0 Z " fill="#D15436" transform="translate(67,117)"/>
<path d="M0 0 C0.33 0 0.66 0 1 0 C1 2.64 1 5.28 1 8 C0.67 8 0.34 8 0 8 C0 5.36 0 2.72 0 0 Z " fill="#E34E20" transform="translate(25,107)"/>
<path d="M0 0 C0.33 0 0.66 0 1 0 C1 2.64 1 5.28 1 8 C0.67 8 0.34 8 0 8 C0 5.36 0 2.72 0 0 Z " fill="#E1501F" transform="translate(230,107)"/>
<path d="M0 0 C0.33 0 0.66 0 1 0 C1 2.64 1 5.28 1 8 C0.67 8 0.34 8 0 8 C0 5.36 0 2.72 0 0 Z " fill="#E04C29" transform="translate(66,106)"/>
<path d="M0 0 C0.33 0 0.66 0 1 0 C1 2.64 1 5.28 1 8 C0.67 8 0.34 8 0 8 C0 5.36 0 2.72 0 0 Z " fill="#D15331" transform="translate(231,96)"/>
<path d="M0 0 C0.33 0 0.66 0 1 0 C1 2.64 1 5.28 1 8 C0.67 8 0.34 8 0 8 C0 5.36 0 2.72 0 0 Z " fill="#C45535" transform="translate(24,96)"/>
<path d="M0 0 C0.33 0 0.66 0 1 0 C1 2.64 1 5.28 1 8 C0.67 8 0.34 8 0 8 C0 5.36 0 2.72 0 0 Z " fill="#CE5236" transform="translate(65,94)"/>
<path d="M0 0 C0.33 0 0.66 0 1 0 C1 2.64 1 5.28 1 8 C0.67 8 0.34 8 0 8 C0 5.36 0 2.72 0 0 Z " fill="#C95838" transform="translate(88,90)"/>
<path d="M0 0 C0.33 0 0.66 0 1 0 C1 2.64 1 5.28 1 8 C0.67 8 0.34 8 0 8 C0 5.36 0 2.72 0 0 Z " fill="#E34A2A" transform="translate(64,83)"/>
<path d="M0 0 C0.33 0 0.66 0 1 0 C1 2.64 1 5.28 1 8 C0.67 8 0.34 8 0 8 C0 5.36 0 2.72 0 0 Z " fill="#DD4E24" transform="translate(232,85)"/>
<path d="M0 0 C0.33 0 0.66 0 1 0 C1 2.64 1 5.28 1 8 C0.67 8 0.34 8 0 8 C0 5.36 0 2.72 0 0 Z " fill="#DC4D2C" transform="translate(23,85)"/>
<path d="M0 0 C0.33 0 0.66 0 1 0 C1 2.64 1 5.28 1 8 C0.67 8 0.34 8 0 8 C0 5.36 0 2.72 0 0 Z " fill="#E34C28" transform="translate(87,79)"/>
<path d="M0 0 C0.33 0 0.66 0 1 0 C1 2.64 1 5.28 1 8 C0.67 8 0.34 8 0 8 C0 5.36 0 2.72 0 0 Z " fill="#CD5337" transform="translate(233,74)"/>
<path d="M0 0 C0.33 0 0.66 0 1 0 C1 2.64 1 5.28 1 8 C0.67 8 0.34 8 0 8 C0 5.36 0 2.72 0 0 Z " fill="#C9583A" transform="translate(63,72)"/>
<path d="M0 0 C0.33 0 0.66 0 1 0 C1 2.64 1 5.28 1 8 C0.67 8 0.34 8 0 8 C0 5.36 0 2.72 0 0 Z " fill="#D05234" transform="translate(22,74)"/>
<path d="M0 0 C0.33 0 0.66 0 1 0 C1 2.64 1 5.28 1 8 C0.67 8 0.34 8 0 8 C0 5.36 0 2.72 0 0 Z " fill="#DD4C2D" transform="translate(234,62)"/>
<path d="M0 0 C0.33 0 0.66 0 1 0 C1 2.64 1 5.28 1 8 C0.67 8 0.34 8 0 8 C0 5.36 0 2.72 0 0 Z " fill="#DE4E25" transform="translate(21,62)"/>
<path d="M0 0 C0.33 0 0.66 0 1 0 C1 2.64 1 5.28 1 8 C0.67 8 0.34 8 0 8 C0 5.36 0 2.72 0 0 Z " fill="#DE4F26" transform="translate(193,61)"/>
<path d="M0 0 C0.33 0 0.66 0 1 0 C1 2.64 1 5.28 1 8 C0.67 8 0.34 8 0 8 C0 5.36 0 2.72 0 0 Z " fill="#E54D26" transform="translate(62,61)"/>
<path d="M0 0 C0.33 0 0.66 0 1 0 C1 2.64 1 5.28 1 8 C0.67 8 0.34 8 0 8 C0 5.36 0 2.72 0 0 Z " fill="#D15133" transform="translate(235,51)"/>
<path d="M0 0 C0.33 0 0.66 0 1 0 C1 2.64 1 5.28 1 8 C0.67 8 0.34 8 0 8 C0 5.36 0 2.72 0 0 Z " fill="#D35336" transform="translate(20,51)"/>
<path d="M0 0 C0.33 0 0.66 0 1 0 C1 2.64 1 5.28 1 8 C0.67 8 0.34 8 0 8 C0 5.36 0 2.72 0 0 Z " fill="#DE4F28" transform="translate(236,40)"/>
<path d="M0 0 C0.33 0 0.66 0 1 0 C1 2.64 1 5.28 1 8 C0.67 8 0.34 8 0 8 C0 5.36 0 2.72 0 0 Z " fill="#E44B2C" transform="translate(19,40)"/>
<path d="M0 0 C0.33 0 0.66 0 1 0 C1 2.64 1 5.28 1 8 C0.67 8 0.34 8 0 8 C0 5.36 0 2.72 0 0 Z " fill="#D0523A" transform="translate(237,29)"/>
<path d="M0 0 C0.33 0 0.66 0 1 0 C1 2.64 1 5.28 1 8 C0.67 8 0.34 8 0 8 C0 5.36 0 2.72 0 0 Z " fill="#CE523D" transform="translate(18,29)"/>
<path d="M0 0 C0.33 0 0.66 0 1 0 C1 2.64 1 5.28 1 8 C0.67 8 0.34 8 0 8 C0 5.36 0 2.72 0 0 Z " fill="#E14E25" transform="translate(238,18)"/>
<path d="M0 0 C0.33 0 0.66 0 1 0 C1 2.64 1 5.28 1 8 C0.67 8 0.34 8 0 8 C0 5.36 0 2.72 0 0 Z " fill="#E34C2C" transform="translate(17,18)"/>
<path d="M0 0 C0.33 0 0.66 0 1 0 C1 2.64 1 5.28 1 8 C0.67 8 0.34 8 0 8 C0 5.36 0 2.72 0 0 Z " fill="#C75436" transform="translate(239,6)"/>
<path d="M0 0 C0.33 0 0.66 0 1 0 C1 2.64 1 5.28 1 8 C0.67 8 0.34 8 0 8 C0 5.36 0 2.72 0 0 Z " fill="#C6593A" transform="translate(16,6)"/>
<path d="M0 0 C0.33 0 0.66 0 1 0 C1 1.65 1 3.3 1 5 C0.01 4.67 -0.98 4.34 -2 4 C-1.34 4 -0.68 4 0 4 C0 2.68 0 1.36 0 0 Z " fill="#CF5433" transform="translate(182,184)"/>
<path d="M0 0 C0.33 0 0.66 0 1 0 C1 1.98 1 3.96 1 6 C0.67 6 0.34 6 0 6 C0 4.02 0 2.04 0 0 Z " fill="#E34C29" transform="translate(189,108)"/>
<path d="M0 0 C0.33 0 0.66 0 1 0 C1 1.65 1 3.3 1 5 C0.67 5 0.34 5 0 5 C0 3.35 0 1.7 0 0 Z " fill="#D45139" transform="translate(73,184)"/>
<path d="M0 0 C0.33 0 0.66 0 1 0 C1 1.65 1 3.3 1 5 C0.67 5 0.34 5 0 5 C0 3.35 0 1.7 0 0 Z " fill="#DE4F28" transform="translate(93,150)"/>
<path d="M0 0 C0.33 0 0.66 0 1 0 C1 1.65 1 3.3 1 5 C0.67 5 0.34 5 0 5 C0 3.35 0 1.7 0 0 Z " fill="#DF5126" transform="translate(89,101)"/>
<path d="M0 0 C0.33 0 0.66 0 1 0 C1 1.65 1 3.3 1 5 C0.67 5 0.34 5 0 5 C0 3.35 0 1.7 0 0 Z " fill="#D45135" transform="translate(194,52)"/>
<path d="M0 0 C0.33 0 0.66 0 1 0 C1 1.65 1 3.3 1 5 C0.67 5 0.34 5 0 5 C0 3.35 0 1.7 0 0 Z " fill="#D35331" transform="translate(61,52)"/>
<path d="M0 0 C1 4 1 4 1 4 Z " fill="#E64D25" transform="translate(68,128)"/>
<path d="M0 0 C1 4 1 4 1 4 Z " fill="#CC572F" transform="translate(192,72)"/>
<path d="M0 0 C3 1 3 1 3 1 Z " fill="#E24D27" transform="translate(129,254)"/>
<path d="M0 0 C3 1 3 1 3 1 Z " fill="#E24D26" transform="translate(124,254)"/>
<path d="M0 0 C3 1 3 1 3 1 Z " fill="#D9502D" transform="translate(132,253)"/>
<path d="M0 0 C3 1 3 1 3 1 Z " fill="#E34D27" transform="translate(136,252)"/>
<path d="M0 0 C3 1 3 1 3 1 Z " fill="#E34C27" transform="translate(117,252)"/>
<path d="M0 0 C3 1 3 1 3 1 Z " fill="#CE5533" transform="translate(113,251)"/>
<path d="M0 0 C3 1 3 1 3 1 Z " fill="#E44A2C" transform="translate(143,250)"/>
<path d="M0 0 C3 1 3 1 3 1 Z " fill="#D25132" transform="translate(147,249)"/>
<path d="M0 0 C3 1 3 1 3 1 Z " fill="#D55232" transform="translate(106,249)"/>
<path d="M0 0 C3 1 3 1 3 1 Z " fill="#D15432" transform="translate(154,247)"/>
<path d="M0 0 C3 1 3 1 3 1 Z " fill="#D8502F" transform="translate(99,247)"/>
<path d="M0 0 C3 1 3 1 3 1 Z " fill="#E54E26" transform="translate(158,246)"/>
<path d="M0 0 C3 1 3 1 3 1 Z " fill="#E44D25" transform="translate(95,246)"/>
<path d="M0 0 C3 1 3 1 3 1 Z " fill="#E25024" transform="translate(165,244)"/>
<path d="M0 0 C3 1 3 1 3 1 Z " fill="#E34D23" transform="translate(88,244)"/>
<path d="M0 0 C3 1 3 1 3 1 Z " fill="#D95230" transform="translate(169,243)"/>
<path d="M0 0 C3 1 3 1 3 1 Z " fill="#D5522F" transform="translate(84,243)"/>
<path d="M0 0 C3 1 3 1 3 1 Z " fill="#E15026" transform="translate(172,242)"/>
<path d="M0 0 C3 1 3 1 3 1 Z " fill="#DB5126" transform="translate(81,242)"/>
<path d="M0 0 C3 1 3 1 3 1 Z " fill="#CA553B" transform="translate(176,241)"/>
<path d="M0 0 C3 1 3 1 3 1 Z " fill="#CB5731" transform="translate(77,241)"/>
<path d="M0 0 C3 1 3 1 3 1 Z " fill="#D9522B" transform="translate(183,239)"/>
<path d="M0 0 C3 1 3 1 3 1 Z " fill="#D65231" transform="translate(70,239)"/>
<path d="M0 0 C3 1 3 1 3 1 Z " fill="#E24F28" transform="translate(187,238)"/>
<path d="M0 0 C3 1 3 1 3 1 Z " fill="#DC5125" transform="translate(66,238)"/>
<path d="M0 0 C3 1 3 1 3 1 Z " fill="#DF5021" transform="translate(194,236)"/>
<path d="M0 0 C3 1 3 1 3 1 Z " fill="#E14E27" transform="translate(59,236)"/>
<path d="M0 0 C3 1 3 1 3 1 Z " fill="#CE5436" transform="translate(198,235)"/>
<path d="M0 0 C3 1 3 1 3 1 Z " fill="#CF5435" transform="translate(55,235)"/>
<path d="M0 0 C3 1 3 1 3 1 Z " fill="#E04E27" transform="translate(201,234)"/>
<path d="M0 0 C3 1 3 1 3 1 Z " fill="#DC5124" transform="translate(52,234)"/>
<path d="M0 0 C3 1 3 1 3 1 Z " fill="#D8512C" transform="translate(205,233)"/>
<path d="M0 0 C3 1 3 1 3 1 Z " fill="#D5522F" transform="translate(48,233)"/>
<path d="M0 0 C3 1 3 1 3 1 Z " fill="#D8522B" transform="translate(212,231)"/>
<path d="M0 0 C3 1 3 1 3 1 Z " fill="#D75035" transform="translate(41,231)"/>
<path d="M0 0 C3 1 3 1 3 1 Z " fill="#D45138" transform="translate(124,202)"/>
<path d="M0 0 C3 1 3 1 3 1 Z " fill="#E24F2A" transform="translate(132,201)"/>
<path d="M0 0 C3 1 3 1 3 1 Z " fill="#E04F23" transform="translate(120,201)"/>
<path d="M0 0 C3 1 3 1 3 1 Z " fill="#D35433" transform="translate(136,200)"/>
<path d="M0 0 C3 1 3 1 3 1 Z " fill="#E04E29" transform="translate(113,199)"/>
<path d="M0 0 C3 1 3 1 3 1 Z " fill="#D45334" transform="translate(143,198)"/>
<path d="M0 0 C3 1 3 1 3 1 Z " fill="#CD562E" transform="translate(109,198)"/>
<path d="M0 0 C3 1 3 1 3 1 Z " fill="#E84C27" transform="translate(147,197)"/>
<path d="M0 0 C3 1 3 1 3 1 Z " fill="#E54C26" transform="translate(105,197)"/>
<path d="M0 0 C3 1 3 1 3 1 Z " fill="#CE562B" transform="translate(101,196)"/>
<path d="M0 0 C3 1 3 1 3 1 Z " fill="#E74B2E" transform="translate(154,195)"/>
<path d="M0 0 C3 1 3 1 3 1 Z " fill="#D9532C" transform="translate(158,194)"/>
<path d="M0 0 C3 1 3 1 3 1 Z " fill="#D0523E" transform="translate(94,194)"/>
<path d="M0 0 C3 1 3 1 3 1 Z " fill="#E64B27" transform="translate(90,193)"/>
<path d="M0 0 C3 1 3 1 3 1 Z " fill="#CD5638" transform="translate(165,192)"/>
<path d="M0 0 C3 1 3 1 3 1 Z " fill="#CD5631" transform="translate(86,192)"/>
<path d="M0 0 C3 1 3 1 3 1 Z " fill="#E24E23" transform="translate(169,191)"/>
<path d="M0 0 C3 1 3 1 3 1 Z " fill="#E84C1E" transform="translate(82,191)"/>
<path d="M0 0 C3 1 3 1 3 1 Z " fill="#D05530" transform="translate(172,190)"/>
<path d="M0 0 C3 1 3 1 3 1 Z " fill="#E34E21" transform="translate(176,189)"/>
<path d="M0 0 C3 1 3 1 3 1 Z " fill="#E64B26" transform="translate(75,189)"/>
<path d="M0 0 C3 1 3 1 3 1 Z " fill="#D55139" transform="translate(124,179)"/>
<path d="M0 0 C3 1 3 1 3 1 Z " fill="#DF4E2B" transform="translate(120,178)"/>
<path d="M0 0 C3 1 3 1 3 1 Z " fill="#D15231" transform="translate(133,177)"/>
<path d="M0 0 C3 1 3 1 3 1 Z " fill="#E04D25" transform="translate(137,176)"/>
<path d="M0 0 C3 1 3 1 3 1 Z " fill="#DD5026" transform="translate(113,176)"/>
<path d="M0 0 C3 1 3 1 3 1 Z " fill="#D0522F" transform="translate(141,175)"/>
<path d="M0 0 C3 1 3 1 3 1 Z " fill="#CA5637" transform="translate(109,175)"/>
<path d="M0 0 C3 1 3 1 3 1 Z " fill="#DB5129" transform="translate(145,174)"/>
<path d="M0 0 C3 1 3 1 3 1 Z " fill="#E44D25" transform="translate(105,174)"/>
<path d="M0 0 C3 1 3 1 3 1 Z " fill="#D1552A" transform="translate(149,173)"/>
<path d="M0 0 C3 1 3 1 3 1 Z " fill="#E64A2D" transform="translate(98,172)"/>
<path d="M0 0 C3 1 3 1 3 1 Z " fill="#D3552F" transform="translate(156,171)"/>
<path d="M0 0 C2 1 2 1 2 1 Z " fill="#D65133" transform="translate(121,253)"/>
<path d="M0 0 C2 1 2 1 2 1 Z " fill="#D55134" transform="translate(140,251)"/>
<path d="M0 0 C2 1 2 1 2 1 Z " fill="#D8512E" transform="translate(110,250)"/>
<path d="M0 0 C2 1 2 1 2 1 Z " fill="#DF4F28" transform="translate(151,248)"/>
<path d="M0 0 C2 1 2 1 2 1 Z " fill="#E64B28" transform="translate(103,248)"/>
<path d="M0 0 C2 1 2 1 2 1 Z " fill="#C65C2D" transform="translate(162,245)"/>
<path d="M0 0 C2 1 2 1 2 1 Z " fill="#C7592E" transform="translate(92,245)"/>
<path d="M0 0 C2 1 2 1 2 1 Z " fill="#E94A29" transform="translate(180,240)"/>
<path d="M0 0 C2 1 2 1 2 1 Z " fill="#EA4B21" transform="translate(74,240)"/>
<path d="M0 0 C2 1 2 1 2 1 Z " fill="#D3532D" transform="translate(191,237)"/>
<path d="M0 0 C2 1 2 1 2 1 Z " fill="#D5532D" transform="translate(63,237)"/>
<path d="M0 0 C2 1 2 1 2 1 Z " fill="#E54C23" transform="translate(209,232)"/>
<path d="M0 0 C2 1 2 1 2 1 Z " fill="#E14E26" transform="translate(45,232)"/>
<path d="M0 0 C2 1 2 1 2 1 Z " fill="#D6522E" transform="translate(216,230)"/>
<path d="M0 0 C2 1 2 1 2 1 Z " fill="#D65329" transform="translate(38,230)"/>
<path d="M0 0 C2 1 2 1 2 1 Z " fill="#D75138" transform="translate(129,202)"/>
<path d="M0 0 C2 1 2 1 2 1 Z " fill="#D3542E" transform="translate(117,200)"/>
<path d="M0 0 C2 1 2 1 2 1 Z " fill="#E14C31" transform="translate(140,199)"/>
<path d="M0 0 C2 1 2 1 2 1 Z " fill="#CF582D" transform="translate(151,196)"/>
<path d="M0 0 C2 1 2 1 2 1 Z " fill="#DD5025" transform="translate(98,195)"/>
<path d="M0 0 C2 1 2 1 2 1 Z " fill="#E84D26" transform="translate(162,193)"/>
<path d="M0 0 C2 1 2 1 2 1 Z " fill="#D65230" transform="translate(79,190)"/>
<path d="M0 0 C2 1 2 1 2 1 Z " fill="#D45236" transform="translate(117,177)"/>
<path d="M0 0 C2 1 2 1 2 1 Z " fill="#D0523C" transform="translate(102,173)"/>
<path d="M0 0 C2 1 2 1 2 1 Z " fill="#DE4F29" transform="translate(153,172)"/>
<path d="" fill="#D15234" transform="translate(0,0)"/>
</svg>
