<?xml version="1.0" encoding="UTF-8"?>
<svg version="1.1" xmlns="http://www.w3.org/2000/svg" width="512" height="512">
<path d="M0 0 C1.44728153 -0.00258604 2.89456234 -0.00559986 4.34184217 -0.0090034 C8.31042511 -0.01704881 12.27898993 -0.0188616 16.24758005 -0.01960087 C20.53136076 -0.02145575 24.81513217 -0.02900532 29.09890747 -0.03573608 C38.46283655 -0.04930303 47.82676135 -0.05534173 57.19069862 -0.05974674 C63.0418011 -0.06251226 68.89290193 -0.06675021 74.7440033 -0.07125092 C90.9556391 -0.08344206 107.16727359 -0.09374128 123.37891388 -0.09712601 C124.41599376 -0.09734557 125.45307364 -0.09756514 126.52158019 -0.09779136 C127.56109329 -0.09800964 128.60060639 -0.09822791 129.67161989 -0.09845281 C131.77794679 -0.09889627 133.88427369 -0.09934283 135.99060059 -0.09979248 C137.03540382 -0.10001391 138.08020705 -0.10023534 139.15667099 -0.10046348 C156.07547867 -0.10440911 172.99424323 -0.12185665 189.91303426 -0.145152 C207.2985708 -0.16889603 224.68408572 -0.18132927 242.06963873 -0.18249393 C251.82475478 -0.18340904 261.57981464 -0.18911987 271.33491516 -0.20731354 C279.64386817 -0.22275582 287.95274762 -0.22781075 296.26171225 -0.21957543 C300.49648184 -0.21568334 304.7311035 -0.21652755 308.96585464 -0.23063278 C312.85233431 -0.24345885 316.73855619 -0.2420988 320.62503594 -0.23004207 C322.02145293 -0.2281 323.41788873 -0.23109347 324.81427938 -0.23988643 C349.31077942 -0.38421338 371.55947371 7.69683129 389.89587402 24.14044189 C390.53009277 24.69216064 391.16431152 25.24387939 391.81774902 25.81231689 C405.93557842 38.89397533 417.13425978 60.62667506 418.02582586 79.95813382 C418.0281565 80.99700171 418.03048714 82.0358696 418.03288841 83.10621834 C418.03796296 84.30971117 418.0430375 85.513204 418.04826581 86.75316632 C418.04901245 88.73128176 418.04901245 88.73128176 418.04977417 90.74935913 C418.0537911 92.16731539 418.05822971 93.58527051 418.06305373 95.00322425 C418.07500029 98.90018957 418.08066327 102.79714252 418.08523488 106.69412255 C418.0911986 110.89758122 418.10280685 115.10102516 418.11352539 119.30447388 C418.138037 129.45903738 418.15267743 139.61360575 418.16558546 149.76818973 C418.16929916 152.63869767 418.17327227 155.50920512 418.17733812 158.37971258 C418.20258319 176.22149072 418.22462714 194.06326966 418.23706627 211.90506172 C418.23999578 216.03706999 418.24295746 220.16907822 418.24597168 224.30108643 C418.24671773 225.32802773 418.24746378 226.35496904 418.24823244 227.41302978 C418.26086889 244.02536821 418.29406907 260.6375992 418.33577351 277.24988748 C418.3782828 294.32349558 418.40177191 311.39704883 418.40698683 328.47070968 C418.41039143 338.04941572 418.42203335 347.62795406 418.45508957 357.20660782 C418.48321549 365.36986751 418.49403492 373.53292511 418.48289411 381.69622947 C418.47773875 385.85462679 418.48038803 390.01260178 418.50535965 394.17093658 C418.68768664 426.31333658 413.52937123 451.38503857 391.08337402 475.39044189 C372.46914558 493.07395892 348.99936676 500.29890363 323.79174805 500.28088379 C322.34446652 500.28346983 320.89718571 500.28648365 319.44990587 500.28988719 C315.48132294 500.2979326 311.51275812 500.29974539 307.544168 500.30048466 C303.26038729 500.30233954 298.97661588 500.30988911 294.69284058 500.31661987 C285.32891149 500.33018682 275.9649867 500.33622552 266.60104942 500.34063053 C260.74994695 500.34339605 254.89884611 500.347634 249.04774475 500.3521347 C232.83610895 500.36432585 216.62447446 500.37462507 200.41283417 500.3780098 C199.37575429 500.37822936 198.3386744 500.37844893 197.27016786 500.37867515 C196.23065476 500.37889343 195.19114165 500.3791117 194.12012815 500.3793366 C192.01380126 500.37978006 189.90747436 500.38022662 187.80114746 500.38067627 C186.75634423 500.3808977 185.711541 500.38111913 184.63507706 500.38134727 C167.71626937 500.3852929 150.79750482 500.40274043 133.87871379 500.42603579 C116.49317725 500.44977981 99.10766233 500.46221306 81.72210932 500.46337771 C71.96699327 500.46429282 62.21193341 500.47000366 52.45683289 500.48819733 C44.14787988 500.50363961 35.83900043 500.50869454 27.53003579 500.50045922 C23.2952662 500.49656713 19.06064455 500.49741134 14.8258934 500.51151657 C10.93941374 500.52434264 7.05319185 500.52298259 3.16671211 500.51092586 C1.77029512 500.50898379 0.37385932 500.51197726 -1.02253133 500.52077022 C-25.51903137 500.66509717 -47.76772566 492.5840525 -66.10412598 476.14044189 C-66.73834473 475.58872314 -67.37256348 475.03700439 -68.02600098 474.46856689 C-82.14136136 461.38919626 -93.35039482 439.64948549 -94.23292714 420.31929797 C-94.23471571 419.27880386 -94.23650428 418.23830975 -94.23834705 417.16628551 C-94.2428049 415.96094258 -94.24726274 414.75559965 -94.25185567 413.51373118 C-94.25176638 412.17959987 -94.25157655 410.84546856 -94.251297 409.51133728 C-94.25459774 408.09124314 -94.25832375 406.67114994 -94.26243848 405.25105792 C-94.27244315 401.34829852 -94.27617282 397.4455545 -94.27882779 393.54278409 C-94.28273553 389.33324938 -94.29231371 385.12372679 -94.30104065 380.91419983 C-94.32079437 370.74630072 -94.33087103 360.57840064 -94.33976844 350.41048715 C-94.34415414 345.61835666 -94.34952031 340.82622728 -94.35475731 336.03409767 C-94.3717704 320.09619597 -94.38626269 304.15829494 -94.39350605 288.22038555 C-94.39541585 284.08525784 -94.3973362 279.95013013 -94.39929199 275.81500244 C-94.39977573 274.7872742 -94.40025947 273.75954597 -94.40075787 272.70067445 C-94.4090511 256.06692777 -94.43437571 239.43325316 -94.46687267 222.79953792 C-94.49998887 205.70899338 -94.51795903 188.61848541 -94.52115029 171.52790862 C-94.52331144 161.93758889 -94.53200178 152.34737419 -94.55761147 142.7570858 C-94.57938104 134.58607232 -94.58733832 126.41518938 -94.57764468 118.24415018 C-94.57311771 114.08010827 -94.57489193 109.91633533 -94.59440613 105.75233078 C-94.61216692 101.92918379 -94.61093708 98.10649942 -94.59550884 94.28334663 C-94.59204826 92.26831992 -94.60806218 90.25328761 -94.62511331 88.23833007 C-94.45502364 63.77753646 -83.8565749 41.66957175 -66.5958252 24.56329346 C-48.15652449 6.9750374 -25.08041232 -0.01792891 0 0 Z " fill="#390000" transform="translate(94.1041259765625,5.85955810546875)"/>
<path d="M0 0 C1.02814316 0.00222061 2.05628632 0.00444122 3.11558533 0.00672913 C4.27671341 0.00680466 5.43784149 0.00688019 6.63415527 0.00695801 C8.52943214 0.01469994 8.52943214 0.01469994 10.46299744 0.02259827 C12.39193092 0.02472069 12.39193092 0.02472069 14.35983276 0.02688599 C17.78427561 0.03071034 21.20867628 0.0405399 24.63310242 0.05158997 C28.12522308 0.06180587 31.61735053 0.06638399 35.10948181 0.07142639 C41.96561897 0.08216225 48.82172806 0.09923767 55.67784119 0.12025452 C58.75868456 6.73167277 61.30819945 13.44689987 63.69737244 20.33509827 C64.07224289 21.40561432 64.44711334 22.47613037 64.83334351 23.5790863 C65.6369102 25.87485246 66.43882962 28.17119575 67.23924255 30.46806335 C69.37897516 36.60745079 71.53127627 42.74243465 73.68174744 48.87806702 C74.11260651 50.10844193 74.54346558 51.33881683 74.98738098 52.60647583 C78.59296809 62.89681921 82.24808489 73.16874547 85.92784119 83.43275452 C93.34875214 104.14837625 100.68886945 124.89244947 108.01914978 145.64027405 C108.99906 148.41357361 109.97905276 151.186844 110.95909119 153.96009827 C111.20027302 154.64264427 111.44145485 155.32519028 111.68994522 156.02841949 C115.0754738 165.60800493 118.47927062 175.18086276 121.89659119 184.74916077 C123.07731573 188.06080676 124.25767735 191.37258185 125.43791199 194.68440247 C126.17434108 196.74742792 126.91254818 198.80981966 127.65263367 200.87153625 C128.66285693 203.68595777 129.66707192 206.50245571 130.67002869 209.31947327 C130.96365295 210.13195023 131.25727722 210.94442719 131.55979919 211.78152466 C133.00851243 215.86967995 134.24620873 219.7739437 134.67784119 224.12025452 C133.67784119 225.12025452 133.67784119 225.12025452 131.73532104 225.24050903 C130.88482681 225.23828842 130.03433258 225.23606781 129.1580658 225.23377991 C127.71668495 225.23366661 127.71668495 225.23366661 126.2461853 225.23355103 C125.20140518 225.22838974 124.15662506 225.22322845 123.08018494 225.21791077 C121.48419212 225.21578835 121.48419212 225.21578835 119.85595703 225.21362305 C116.44239035 225.20800515 113.02888819 225.19544963 109.61534119 225.18275452 C107.30739942 225.17774182 104.99945663 225.17317852 102.69151306 225.16908264 C97.02026692 225.15802991 91.34905866 225.14127438 85.67784119 225.12025452 C82.74629941 218.80386263 80.2694519 212.41789892 78.00596619 205.83509827 C77.71512146 204.99885925 77.42427673 204.16262024 77.12461853 203.30104065 C76.05478217 200.2214163 74.99169089 197.13945207 73.92784119 194.05775452 C71.53534119 187.14837952 69.14284119 180.23900452 66.67784119 173.12025452 C40.27784119 172.79025452 13.87784119 172.46025452 -13.32215881 172.12025452 C-13.98215881 175.09025452 -14.64215881 178.06025452 -15.32215881 181.12025452 C-15.75878721 182.70698045 -16.21601253 184.28849388 -16.71083069 185.85804749 C-16.96449402 186.66853546 -17.21815735 187.47902344 -17.47950745 188.31407166 C-17.7472699 189.15503387 -18.01503235 189.99599609 -18.29090881 190.86244202 C-18.57188416 191.75263031 -18.8528595 192.6428186 -19.14234924 193.5599823 C-19.73209159 195.42443539 -20.32379127 197.28827041 -20.91737366 199.15150452 C-21.82566705 202.00628094 -22.72463467 204.8638841 -23.62294006 207.72181702 C-24.19920555 209.53970215 -24.77600933 211.35741675 -25.35340881 213.17494202 C-25.75505249 214.45460342 -25.75505249 214.45460342 -26.16481018 215.76011658 C-26.54530518 216.9474791 -26.54530518 216.9474791 -26.93348694 218.15882874 C-27.15395691 218.85338165 -27.37442688 219.54793457 -27.60157776 220.26353455 C-28.32215881 222.12025452 -28.32215881 222.12025452 -30.32215881 225.12025452 C-32.27104187 225.48101807 -32.27104187 225.48101807 -34.68006897 225.46083069 C-35.58085175 225.4606041 -36.48163452 225.4603775 -37.40971375 225.46014404 C-38.38371124 225.44466019 -39.35770874 225.42917633 -40.36122131 225.41322327 C-41.35721344 225.40897842 -42.35320557 225.40473358 -43.37937927 225.40036011 C-46.56891106 225.38353132 -49.75781714 225.34587127 -52.94715881 225.30775452 C-55.10600387 225.29271312 -57.26485881 225.27902377 -59.42372131 225.26673889 C-64.72341494 225.23361418 -70.02274218 225.18337348 -75.32215881 225.12025452 C-75.66681507 219.93617714 -74.42266766 215.76171484 -72.67372131 210.95619202 C-72.24813431 209.75055099 -72.24813431 209.75055099 -71.81394958 208.52055359 C-71.19401956 206.76781795 -70.56978754 205.01659936 -69.94178772 203.26673889 C-68.92622261 200.43691682 -67.92157488 197.60342867 -66.91981506 194.76869202 C-65.84753854 191.73460069 -64.77461409 188.70075664 -63.69844055 185.66804504 C-59.89228895 174.93810266 -56.17354277 164.17841493 -52.45979309 153.41621399 C-50.55218735 147.88948951 -48.64054483 142.36416299 -46.72840881 136.83900452 C-46.16740982 135.21794296 -46.16740982 135.21794296 -45.59507751 133.56413269 C-42.02161946 123.24338112 -38.42437605 112.93099638 -34.82215881 102.62025452 C-29.49304358 87.36384389 -24.18511571 72.10017541 -18.89564514 56.82997131 C-18.10834592 54.55724421 -17.32075724 52.28461736 -16.53285217 50.01210022 C-14.42136956 43.9211976 -12.31696284 37.8279489 -10.22254944 31.7311554 C-9.39472015 29.33066371 -8.55703285 26.93386725 -7.71669006 24.53773499 C-7.25927783 23.21381056 -6.80221431 21.88976558 -6.34559631 20.56556702 C-5.96580627 19.4777594 -5.58601624 18.38995178 -5.19471741 17.2691803 C-3.93401545 12.71950659 -3.62298639 8.23740685 -3.46278381 3.53431702 C-3.27670053 0.3398874 -3.19145312 0.16527149 0 0 Z " fill="#FD9900" transform="translate(181.32215881347656,133.87974548339844)"/>
<path d="M0 0 C0.83272934 0.00222061 1.66545868 0.00444122 2.52342224 0.00672913 C3.46432205 0.00680466 4.40522186 0.00688019 5.37463379 0.00695801 C6.39754013 0.01211929 7.42044647 0.01728058 8.47434998 0.02259827 C9.51614914 0.02401321 10.5579483 0.02542816 11.63131714 0.02688599 C14.97355467 0.03250372 18.31572629 0.04505922 21.65794373 0.05775452 C23.91770839 0.06276723 26.17747409 0.06733053 28.4372406 0.07142639 C33.98999763 0.08247891 39.54271597 0.09923428 45.09544373 0.12025452 C45.11877049 22.13784498 45.1364218 44.15543342 45.1472559 66.17303371 C45.15241933 76.39543508 45.15946292 86.61782878 45.17088318 96.84022522 C45.18082858 105.7466824 45.18729681 114.65313402 45.18953222 123.5595966 C45.19083957 128.27854255 45.19392697 132.99747262 45.20117378 137.7164135 C45.20793173 142.15271591 45.21006115 146.58899582 45.20855141 151.02530289 C45.20882784 152.65840464 45.21083429 154.2915071 45.2146492 155.92460442 C45.21958295 158.14446662 45.21844321 160.36424248 45.21569824 162.58410645 C45.21662004 163.82944877 45.21754183 165.07479109 45.21849155 166.35787106 C45.09544373 169.12025452 45.09544373 169.12025452 44.09544373 170.12025452 C42.65254586 170.21321267 41.20514588 170.23771965 39.75926208 170.23377991 C38.3779435 170.23366661 38.3779435 170.23366661 36.96871948 170.23355103 C35.96768692 170.22838974 34.96665436 170.22322845 33.93528748 170.21791077 C32.91568436 170.21649582 31.89608124 170.21508087 30.84558105 170.21362305 C27.57467265 170.20800548 24.30383159 170.19545002 21.03294373 170.18275452 C18.82135617 170.17774178 16.60976754 170.17317848 14.3981781 170.16908264 C8.96391016 170.15803035 3.52968175 170.14127515 -1.90455627 170.12025452 C-3.3447269 167.23991326 -3.03055161 164.7664904 -3.03153992 161.54650879 C-3.03309991 160.86355226 -3.0346599 160.18059573 -3.03626716 159.47694355 C-3.04027095 157.17760564 -3.03708993 154.87833321 -3.03395081 152.57899475 C-3.03530511 150.93502259 -3.03708521 149.29105074 -3.03926086 147.64707947 C-3.04383138 143.17412538 -3.04204729 138.70119428 -3.03888178 134.22823977 C-3.03635664 129.55618142 -3.03869611 124.88412508 -3.04026794 120.21206665 C-3.04208901 112.36611069 -3.03968479 104.52016413 -3.03492737 96.67420959 C-3.02948298 87.59012869 -3.03124895 78.50607022 -3.03675377 69.42198986 C-3.04128444 61.6351599 -3.04193574 53.84833671 -3.0393151 46.06150585 C-3.03775232 41.40519121 -3.03755865 36.74888714 -3.04085159 32.09257317 C-3.0437297 27.71697687 -3.04175574 23.34140964 -3.03595734 18.9658165 C-3.03462949 17.35529059 -3.03502426 15.74476225 -3.03722 14.13423729 C-3.03993052 11.94513013 -3.03655165 9.75611764 -3.03153992 7.5670166 C-3.03116289 6.33902061 -3.03078587 5.11102461 -3.03039742 3.84581661 C-2.86117433 0.1806558 -2.86117433 0.1806558 0 0 Z " fill="#FD9800" transform="translate(340.90455627441406,188.87974548339844)"/>
<path d="M0 0 C0.66 0 1.32 0 2 0 C4.37863818 7.53586256 6.73582619 15.07653905 8.98532104 22.65209961 C11.53398699 31.23087662 14.17011356 39.77925289 16.8671875 48.3125 C17.19510284 49.35174622 17.52301819 50.39099243 17.86087036 51.46173096 C19.210881 55.73857325 20.56180746 60.01509573 21.92089844 64.2890625 C22.92898664 67.46193729 23.92993293 70.63699113 24.9296875 73.8125 C25.23897186 74.77905518 25.54825623 75.74561035 25.86691284 76.74145508 C26.14785797 77.63759521 26.4288031 78.53373535 26.71826172 79.45703125 C26.96663788 80.24053955 27.21501404 81.02404785 27.47091675 81.83129883 C28 84 28 84 28 88 C10.18 88 -7.64 88 -26 88 C-24.07151015 80.28604061 -22.09250585 72.70598145 -19.75 65.125 C-19.44771484 64.13741699 -19.14542969 63.14983398 -18.83398438 62.13232422 C-17.05475011 56.34244543 -15.22529091 50.57042014 -13.36499023 44.80615234 C-10.10415841 34.69877015 -7.11935491 24.53946465 -4.30859375 14.29736328 C-2.98748732 9.4857628 -1.65371634 4.71107484 0 0 Z " fill="#3D0300" transform="translate(207,175)"/>
<path d="M0 0 C5.67396371 5.93187115 8.05269484 11.64186403 8.3125 19.875 C7.975206 28.04994154 6.13849621 34.58479029 0.625 40.75 C-5.70147224 46.44382502 -13.08832232 48.62289832 -21.515625 48.25390625 C-28.75550386 47.25066589 -34.85706053 44.44354385 -39.77734375 38.9765625 C-44.98228904 31.54881564 -46.59402297 22.77171844 -45.25 13.875 C-42.72140686 5.71824792 -37.69263142 0.05649644 -30.37890625 -4.21875 C-19.6391092 -9.04161105 -9.32776636 -6.09892416 0 0 Z " fill="#FC9800" transform="translate(381.25,123.125)"/>
</svg>
