<?xml version="1.0" encoding="UTF-8"?>
<svg version="1.1" xmlns="http://www.w3.org/2000/svg" width="600" height="600">
<path d="M0 0 C1.89323825 0.97440361 3.75754088 2.00570096 5.6015625 3.0703125 C6.71821289 3.71178223 7.83486328 4.35325195 8.98535156 5.01416016 C10.19863104 5.71766423 11.41184548 6.42128046 12.625 7.125 C13.88484692 7.85117258 15.14494177 8.57691516 16.40527344 9.30224609 C19.00190905 10.79773141 21.59686581 12.29606895 24.19042969 13.796875 C27.71999712 15.83912361 31.25391698 17.87367149 34.7890625 19.90625 C50.21718892 28.78205576 65.59231608 37.74785207 80.95898438 46.72949219 C93.38082591 53.98853142 105.82158421 61.21304171 118.28857422 68.39428711 C126.52969191 73.14414532 134.7486691 77.93095041 142.9609375 82.73046875 C150.29283723 87.01222122 157.64267238 91.26210939 165 95.5 C174.33949555 100.87963817 183.65898359 106.29214851 192.96313477 111.73266602 C198.0997306 114.73361023 203.24385959 117.72040828 208.40234375 120.68359375 C209.49353516 121.31072266 210.58472656 121.93785156 211.70898438 122.58398438 C213.7312067 123.74495775 215.75447976 124.90410494 217.77929688 126.06054688 C219.78481234 127.2120837 221.77236716 128.39532757 223.74320221 129.60526085 C227.08289691 131.57936453 230.52095348 133.1284918 234.07204437 134.68656349 C250.77308187 142.54410157 250.77308187 142.54410157 254.45570755 149.91276312 C256.58219636 157.67759819 256.35553334 165.64957161 256.12152624 173.63377786 C256.04362354 177.23766451 256.11158103 180.83942579 256.1602478 184.44342041 C256.23252604 191.48359386 256.17213512 198.5165082 256.06468159 205.55598991 C255.94405699 213.76213134 255.95323599 221.96664912 255.96621114 230.17348023 C255.98462057 244.817838 255.88089399 259.45879101 255.70996094 274.10205078 C255.54433997 288.29563308 255.47370139 302.48564671 255.50488281 316.68017578 C255.53872917 332.16385513 255.5263449 347.6460443 255.4280858 363.12950385 C255.42288838 363.94863275 255.41769095 364.76776165 255.41233602 365.61171264 C255.40188209 367.25660429 255.39132724 368.9014953 255.38067016 370.54638564 C255.34625367 376.26068837 255.3428347 381.97453063 255.3500824 387.68891525 C255.35729299 394.65304572 255.30863123 401.61427522 255.19035059 408.57744376 C255.13117565 412.12811809 255.09531604 415.67475953 255.12453842 419.22590256 C255.27060317 439.93304076 255.27060317 439.93304076 251.52997971 444.98559237 C248.05734071 448.09512099 244.2576857 449.83640088 239.87547016 451.31368089 C236.95392101 452.38280748 234.40199573 454.00645937 231.76171875 455.6328125 C229.73773614 456.79819068 227.71297919 457.96222491 225.6875 459.125 C223.4231685 460.4283705 221.15884583 461.73175636 218.89453125 463.03515625 C217.75322754 463.6914502 216.61192383 464.34774414 215.43603516 465.02392578 C209.91362993 468.19987774 204.39382559 471.38033248 198.875 474.5625 C197.79822998 475.18334473 196.72145996 475.80418945 195.61206055 476.44384766 C187.40541011 481.17975984 179.21910249 485.9498584 171.03857422 490.73071289 C162.61430661 495.65051282 154.16446104 500.52522138 145.7109375 505.39453125 C138.46048459 509.57349158 131.22516137 513.77747989 124 518 C110.26953183 526.02281678 96.48921914 533.95858328 82.70898438 541.89550781 C70.1411788 549.13525083 57.58715879 556.39699071 45.06494141 563.71533203 C36.4210387 568.76343976 27.75307087 573.76916794 19.078125 578.76367188 C17.5621875 579.63668945 17.5621875 579.63668945 16.015625 580.52734375 C15.02755859 581.09050293 14.03949219 581.65366211 13.02148438 582.23388672 C10.90486004 583.47109264 8.81397898 584.75291347 6.74414062 586.06689453 C5.68904297 586.7267334 4.63394531 587.38657227 3.546875 588.06640625 C2.12906738 588.98015015 2.12906738 588.98015015 0.68261719 589.91235352 C-2 591 -2 591 -4.51782227 590.36767578 C-5.33694092 589.91634277 -6.15605957 589.46500977 -7 589 C-8.25816528 588.32384644 -8.25816528 588.32384644 -9.54174805 587.6340332 C-10.43933838 587.11156006 -11.33692871 586.58908691 -12.26171875 586.05078125 C-13.79626709 585.16120728 -13.79626709 585.16120728 -15.36181641 584.25366211 C-17.00802979 583.29278687 -17.00802979 583.29278687 -18.6875 582.3125 C-19.84794246 581.63840526 -21.00859074 580.96466475 -22.16943359 580.29125977 C-24.58134125 578.89179069 -26.99235586 577.49080029 -29.40283203 576.08886719 C-33.89393806 573.4786543 -38.39592533 570.88740337 -42.89770508 568.2956543 C-53.27293996 562.32198664 -63.62511777 556.3100198 -73.96142578 550.26928711 C-81.29312479 545.98755083 -88.64282981 541.73779993 -96 537.5 C-105.33863207 532.1208592 -114.65640317 526.70740553 -123.9609375 521.26953125 C-131.29283723 516.98777878 -138.64267238 512.73789061 -146 508.5 C-155.33863207 503.1208592 -164.65640317 497.70740553 -173.9609375 492.26953125 C-181.29283764 487.98777854 -188.64270807 483.73795309 -196 479.5 C-207.33394875 472.97038525 -218.63831943 466.39142699 -229.93115234 459.79101562 C-233.21873751 457.87234221 -236.5094638 455.95913838 -239.80078125 454.046875 C-241.46633057 453.07826538 -241.46633057 453.07826538 -243.16552734 452.09008789 C-245.30969496 450.8432965 -247.45452812 449.59764881 -249.60009766 448.35327148 C-250.55577637 447.79712158 -251.51145508 447.24097168 -252.49609375 446.66796875 C-253.34357178 446.17578857 -254.1910498 445.6836084 -255.06420898 445.17651367 C-257 444 -257 444 -258 443 C-258.09702254 441.41530178 -258.12371632 439.82625849 -258.12304783 438.2385931 C-258.12503888 437.20203357 -258.12702993 436.16547403 -258.12908131 435.0975036 C-258.12616847 433.9448048 -258.12325563 432.792106 -258.12025452 431.60447693 C-258.12110894 430.39080745 -258.12196337 429.17713798 -258.12284368 427.92669064 C-258.12421191 424.54266124 -258.1210643 421.15868896 -258.11606562 417.77466643 C-258.11176454 414.13115984 -258.1132073 410.48765514 -258.1139679 406.84414673 C-258.11449335 400.52645381 -258.11134433 394.20877119 -258.10573006 387.89108086 C-258.09761794 378.75665657 -258.09500013 369.62223728 -258.09374207 360.48780978 C-258.09155109 345.6693606 -258.08488978 330.85091691 -258.07543945 316.0324707 C-258.06626651 301.63403348 -258.0591851 287.23559775 -258.05493164 272.8371582 C-258.05466892 271.95028324 -258.05440619 271.06340828 -258.05413551 270.14965831 C-258.05283051 265.7006598 -258.05156679 261.25166127 -258.05032361 256.80266273 C-258.03994958 219.86843794 -258.02233003 182.9342194 -258 146 C-257.22118469 145.55524323 -256.44236938 145.11048645 -255.63995361 144.6522522 C-252.68152162 142.96264617 -249.72320255 141.27284276 -246.76495361 139.58291626 C-245.49750031 138.85892255 -244.23000522 138.135002 -242.96246338 137.41116333 C-224.93710289 127.11747484 -206.95967223 116.74250545 -189.03808594 106.26904297 C-180.61402569 101.34924802 -172.1643035 96.47468788 -163.7109375 91.60546875 C-156.46048459 87.42650842 -149.22516137 83.22252011 -142 79 C-128.26953183 70.97718322 -114.48921914 63.04141672 -100.70898438 55.10449219 C-88.1323608 47.85966952 -75.56963043 40.5926719 -63.03857422 33.26928711 C-54.63145588 28.35950241 -46.20384779 23.48572433 -37.75927734 18.640625 C-32.19711703 15.4445021 -26.66264374 12.2107387 -21.1640625 8.90625 C-20.06578125 8.25076172 -18.9675 7.59527344 -17.8359375 6.91992188 C-15.73861758 5.66586745 -13.64715808 4.4019449 -11.5625 3.12695312 C-10.15871094 2.29067383 -10.15871094 2.29067383 -8.7265625 1.4375 C-7.49800537 0.69306641 -7.49800537 0.69306641 -6.24462891 -0.06640625 C-3.52458918 -1.1977345 -2.69736381 -1.10830371 0 0 Z " fill="#FEFEFE" transform="translate(301,6)"/>
<path d="M0 0 C1.89323825 0.97440361 3.75754088 2.00570096 5.6015625 3.0703125 C6.71821289 3.71178223 7.83486328 4.35325195 8.98535156 5.01416016 C10.19863104 5.71766423 11.41184548 6.42128046 12.625 7.125 C13.88484692 7.85117258 15.14494177 8.57691516 16.40527344 9.30224609 C19.00190905 10.79773141 21.59686581 12.29606895 24.19042969 13.796875 C27.71999712 15.83912361 31.25391698 17.87367149 34.7890625 19.90625 C50.21718892 28.78205576 65.59231608 37.74785207 80.95898438 46.72949219 C93.38082591 53.98853142 105.82158421 61.21304171 118.28857422 68.39428711 C126.52969191 73.14414532 134.7486691 77.93095041 142.9609375 82.73046875 C150.29283723 87.01222122 157.64267238 91.26210939 165 95.5 C174.33949555 100.87963817 183.65898359 106.29214851 192.96313477 111.73266602 C198.0997306 114.73361023 203.24385959 117.72040828 208.40234375 120.68359375 C209.49353516 121.31072266 210.58472656 121.93785156 211.70898438 122.58398438 C213.7312067 123.74495775 215.75447976 124.90410494 217.77929688 126.06054688 C219.78481234 127.2120837 221.77236716 128.39532757 223.74320221 129.60526085 C227.08289691 131.57936453 230.52095348 133.1284918 234.07204437 134.68656349 C250.77308187 142.54410157 250.77308187 142.54410157 254.45570755 149.91276312 C256.58219636 157.67759819 256.35553334 165.64957161 256.12152624 173.63377786 C256.04362354 177.23766451 256.11158103 180.83942579 256.1602478 184.44342041 C256.23252604 191.48359386 256.17213512 198.5165082 256.06468159 205.55598991 C255.94405699 213.76213134 255.95323599 221.96664912 255.96621114 230.17348023 C255.98462057 244.817838 255.88089399 259.45879101 255.70996094 274.10205078 C255.54433997 288.29563308 255.47370139 302.48564671 255.50488281 316.68017578 C255.53872917 332.16385513 255.5263449 347.6460443 255.4280858 363.12950385 C255.42288838 363.94863275 255.41769095 364.76776165 255.41233602 365.61171264 C255.40188209 367.25660429 255.39132724 368.9014953 255.38067016 370.54638564 C255.34625367 376.26068837 255.3428347 381.97453063 255.3500824 387.68891525 C255.35729299 394.65304572 255.30863123 401.61427522 255.19035059 408.57744376 C255.13117565 412.12811809 255.09531604 415.67475953 255.12453842 419.22590256 C255.27060317 439.93304076 255.27060317 439.93304076 251.52997971 444.98559237 C248.05734071 448.09512099 244.2576857 449.83640088 239.87547016 451.31368089 C236.95392101 452.38280748 234.40199573 454.00645937 231.76171875 455.6328125 C229.73773614 456.79819068 227.71297919 457.96222491 225.6875 459.125 C223.4231685 460.4283705 221.15884583 461.73175636 218.89453125 463.03515625 C217.75322754 463.6914502 216.61192383 464.34774414 215.43603516 465.02392578 C209.91362993 468.19987774 204.39382559 471.38033248 198.875 474.5625 C197.79822998 475.18334473 196.72145996 475.80418945 195.61206055 476.44384766 C187.40541011 481.17975984 179.21910249 485.9498584 171.03857422 490.73071289 C162.61430661 495.65051282 154.16446104 500.52522138 145.7109375 505.39453125 C138.46048459 509.57349158 131.22516137 513.77747989 124 518 C110.26953183 526.02281678 96.48921914 533.95858328 82.70898438 541.89550781 C70.1411788 549.13525083 57.58715879 556.39699071 45.06494141 563.71533203 C36.4210387 568.76343976 27.75307087 573.76916794 19.078125 578.76367188 C17.5621875 579.63668945 17.5621875 579.63668945 16.015625 580.52734375 C15.02755859 581.09050293 14.03949219 581.65366211 13.02148438 582.23388672 C10.90486004 583.47109264 8.81397898 584.75291347 6.74414062 586.06689453 C5.68904297 586.7267334 4.63394531 587.38657227 3.546875 588.06640625 C2.12906738 588.98015015 2.12906738 588.98015015 0.68261719 589.91235352 C-2 591 -2 591 -4.51782227 590.36767578 C-5.33694092 589.91634277 -6.15605957 589.46500977 -7 589 C-8.25816528 588.32384644 -8.25816528 588.32384644 -9.54174805 587.6340332 C-10.43933838 587.11156006 -11.33692871 586.58908691 -12.26171875 586.05078125 C-13.79626709 585.16120728 -13.79626709 585.16120728 -15.36181641 584.25366211 C-17.00802979 583.29278687 -17.00802979 583.29278687 -18.6875 582.3125 C-19.84794246 581.63840526 -21.00859074 580.96466475 -22.16943359 580.29125977 C-24.58134125 578.89179069 -26.99235586 577.49080029 -29.40283203 576.08886719 C-33.89393806 573.4786543 -38.39592533 570.88740337 -42.89770508 568.2956543 C-53.27293996 562.32198664 -63.62511777 556.3100198 -73.96142578 550.26928711 C-81.29312479 545.98755083 -88.64282981 541.73779993 -96 537.5 C-105.33863207 532.1208592 -114.65640317 526.70740553 -123.9609375 521.26953125 C-131.29283723 516.98777878 -138.64267238 512.73789061 -146 508.5 C-155.33863207 503.1208592 -164.65640317 497.70740553 -173.9609375 492.26953125 C-181.29283764 487.98777854 -188.64270807 483.73795309 -196 479.5 C-207.33394875 472.97038525 -218.63831943 466.39142699 -229.93115234 459.79101562 C-233.21873751 457.87234221 -236.5094638 455.95913838 -239.80078125 454.046875 C-241.46633057 453.07826538 -241.46633057 453.07826538 -243.16552734 452.09008789 C-245.30969496 450.8432965 -247.45452812 449.59764881 -249.60009766 448.35327148 C-250.55577637 447.79712158 -251.51145508 447.24097168 -252.49609375 446.66796875 C-253.34357178 446.17578857 -254.1910498 445.6836084 -255.06420898 445.17651367 C-257 444 -257 444 -258 443 C-258.09702254 441.41530178 -258.12371632 439.82625849 -258.12304783 438.2385931 C-258.12503888 437.20203357 -258.12702993 436.16547403 -258.12908131 435.0975036 C-258.12616847 433.9448048 -258.12325563 432.792106 -258.12025452 431.60447693 C-258.12110894 430.39080745 -258.12196337 429.17713798 -258.12284368 427.92669064 C-258.12421191 424.54266124 -258.1210643 421.15868896 -258.11606562 417.77466643 C-258.11176454 414.13115984 -258.1132073 410.48765514 -258.1139679 406.84414673 C-258.11449335 400.52645381 -258.11134433 394.20877119 -258.10573006 387.89108086 C-258.09761794 378.75665657 -258.09500013 369.62223728 -258.09374207 360.48780978 C-258.09155109 345.6693606 -258.08488978 330.85091691 -258.07543945 316.0324707 C-258.06626651 301.63403348 -258.0591851 287.23559775 -258.05493164 272.8371582 C-258.05466892 271.95028324 -258.05440619 271.06340828 -258.05413551 270.14965831 C-258.05283051 265.7006598 -258.05156679 261.25166127 -258.05032361 256.80266273 C-258.03994958 219.86843794 -258.02233003 182.9342194 -258 146 C-257.22118469 145.55524323 -256.44236938 145.11048645 -255.63995361 144.6522522 C-252.68152162 142.96264617 -249.72320255 141.27284276 -246.76495361 139.58291626 C-245.49750031 138.85892255 -244.23000522 138.135002 -242.96246338 137.41116333 C-224.93710289 127.11747484 -206.95967223 116.74250545 -189.03808594 106.26904297 C-180.61402569 101.34924802 -172.1643035 96.47468788 -163.7109375 91.60546875 C-156.46048459 87.42650842 -149.22516137 83.22252011 -142 79 C-128.26953183 70.97718322 -114.48921914 63.04141672 -100.70898438 55.10449219 C-88.1323608 47.85966952 -75.56963043 40.5926719 -63.03857422 33.26928711 C-54.63145588 28.35950241 -46.20384779 23.48572433 -37.75927734 18.640625 C-32.19711703 15.4445021 -26.66264374 12.2107387 -21.1640625 8.90625 C-20.06578125 8.25076172 -18.9675 7.59527344 -17.8359375 6.91992188 C-15.73861758 5.66586745 -13.64715808 4.4019449 -11.5625 3.12695312 C-10.15871094 2.29067383 -10.15871094 2.29067383 -8.7265625 1.4375 C-7.49800537 0.69306641 -7.49800537 0.69306641 -6.24462891 -0.06640625 C-3.52458918 -1.1977345 -2.69736381 -1.10830371 0 0 Z M-6.17456055 10.72827148 C-7.26957886 11.41771851 -7.26957886 11.41771851 -8.38671875 12.12109375 C-9.22895996 12.63663818 -10.07120117 13.15218262 -10.93896484 13.68334961 C-12.29948975 14.55165405 -12.29948975 14.55165405 -13.6875 15.4375 C-15.67208474 16.65802793 -17.6578095 17.87670369 -19.64453125 19.09375 C-20.68432129 19.73699219 -21.72411133 20.38023438 -22.79541016 21.04296875 C-28.09489275 24.27934331 -33.48607282 27.35321029 -38.875 30.4375 C-47.26659022 35.26357805 -55.6427506 40.1147012 -64 45 C-73.40984592 50.49955286 -82.84470631 55.95449235 -92.2890625 61.39453125 C-99.53951541 65.57349158 -106.77483863 69.77747989 -114 74 C-127.73046817 82.02281678 -141.51078086 89.95858328 -155.29101562 97.89550781 C-167.86479791 105.13869375 -180.42577597 112.40223763 -192.95263672 119.72631836 C-198.15180046 122.76365255 -203.35853059 125.78695286 -208.578125 128.7890625 C-209.691875 129.42972656 -210.805625 130.07039063 -211.953125 130.73046875 C-214.04069432 131.93007908 -216.12912907 133.12818572 -218.21875 134.32421875 C-220.21097985 135.46896863 -222.18689108 136.64259003 -224.14540482 137.8441124 C-226.99886329 139.5283816 -229.88923948 140.7984392 -232.95893478 142.04092789 C-242.81402599 146.38868276 -242.81402599 146.38868276 -249.14534855 154.67935085 C-250.84577914 162.21258261 -250.56086505 169.8959358 -250.32131243 177.57208252 C-250.23430371 181.07288639 -250.26421252 184.57303341 -250.27935791 188.07461548 C-250.28980779 194.12981706 -250.2274902 200.18068398 -250.11460114 206.23479462 C-249.95150767 214.98704387 -249.89992065 223.73721387 -249.8748413 232.49081782 C-249.83115093 246.69428362 -249.69828796 260.89544214 -249.50878906 275.09765625 C-249.32498791 288.88725296 -249.18353183 302.67622128 -249.09863281 316.46679688 C-249.09337834 317.31792493 -249.08812387 318.16905298 -249.08271018 319.04597279 C-249.05660795 323.31616562 -249.03133415 327.58636288 -249.00647211 331.85656309 C-248.79939542 367.23935301 -248.44736831 402.61946306 -248 438 C-247.33773061 438.37388414 -246.67546122 438.74776829 -245.99312305 439.13298225 C-242.96568049 440.84238077 -239.93852647 442.55228962 -236.91137695 444.26220703 C-235.86953499 444.85036697 -234.82769302 445.43852692 -233.75428009 446.04450989 C-226.86684826 449.935563 -220.00607331 453.86437815 -213.1875 457.875 C-204.80979937 462.78185973 -196.41367379 467.6550808 -188 472.5 C-174.64972757 480.19097176 -161.34266718 487.9548305 -148.04101562 495.72949219 C-135.61917409 502.98853142 -123.17841579 510.21304171 -110.71142578 517.39428711 C-102.47030809 522.14414532 -94.2513309 526.93095041 -86.0390625 531.73046875 C-78.70716194 536.0122217 -71.35725623 540.26198442 -64 544.5 C-55.57228322 549.35616131 -47.15385186 554.22764884 -38.75 559.125 C-37.77562988 559.69033447 -36.80125977 560.25566895 -35.79736328 560.83813477 C-30.76591877 563.76552829 -25.77286851 566.74157381 -20.8203125 569.80078125 C-19.82161133 570.41099121 -18.82291016 571.02120117 -17.79394531 571.64990234 C-15.89655316 572.8118884 -14.00731014 573.9873248 -12.12792969 575.17822266 C-11.27875977 575.69562012 -10.42958984 576.21301758 -9.5546875 576.74609375 C-8.81718262 577.20685303 -8.07967773 577.6676123 -7.31982422 578.14233398 C-4.14774103 579.31509006 -2.24430217 578.87118887 1 578 C3.70765929 576.77325824 3.70765929 576.77325824 6.359375 575.1484375 C7.37918457 574.55216553 8.39899414 573.95589355 9.44970703 573.34155273 C11.08335205 572.36810913 11.08335205 572.36810913 12.75 571.375 C13.90551279 570.69571783 15.06161137 570.01743127 16.21826172 569.34008789 C18.62074891 567.93218406 21.02066241 566.52003309 23.41894531 565.10498047 C28.96272213 561.83942961 34.54658088 558.64336197 40.125 555.4375 C48.43134253 550.64997194 56.72218753 545.83667377 65 541 C78.73055188 532.97732489 92.51077966 525.04141741 106.29101562 517.10449219 C118.8676392 509.85966952 131.43036957 502.5926719 143.96142578 495.26928711 C152.38569339 490.34948718 160.83553896 485.47477862 169.2890625 480.60546875 C176.53951538 476.42650844 183.774842 472.22252591 191 468 C199.52761255 463.01717671 208.06979812 458.06031299 216.625 453.125 C217.65496094 452.53074219 218.68492187 451.93648438 219.74609375 451.32421875 C227.48624204 446.86295228 235.24315588 442.43248236 243 438 C243 343.62 243 249.24 243 152 C230.625 145.07 230.625 145.07 218 138 C213.08673219 135.1309385 208.18046327 132.25653217 203.28808594 129.35302734 C185.94110484 119.09513477 168.46316029 109.05815849 151 99 C133.31366862 88.81330291 115.66201199 78.56977665 98.04101562 68.27050781 C85.61917409 61.01146858 73.17841579 53.78695829 60.71142578 46.60571289 C53.4607774 42.42672249 46.22550833 38.22228896 39 34 C35.00073927 31.66539769 31.00065385 29.33221416 27 27 C26.43315491 26.66943604 25.86630981 26.33887207 25.2822876 25.99829102 C21.70702096 23.91385539 18.12945262 21.83345272 14.54907227 19.7578125 C12.8523465 18.77312475 11.15759361 17.78504001 9.46289062 16.796875 C8.42970703 16.19875 7.39652344 15.600625 6.33203125 14.984375 C5.42171143 14.45553711 4.5113916 13.92669922 3.57348633 13.38183594 C-1.07206923 10.51569005 -1.07206923 10.51569005 -6.17456055 10.72827148 Z " fill="#3166B4" transform="translate(301,6)"/>
<path d="M0 0 C0.66 0.33 1.32 0.66 2 1 C1.68546875 1.54785156 1.3709375 2.09570312 1.046875 2.66015625 C-10.32954147 23.73393977 -10.74720661 49.37884454 -4 72 C-1.76347909 78.52582587 1.01205349 84.78783735 4 91 C4.2980957 91.62519531 4.59619141 92.25039062 4.90332031 92.89453125 C19.34458473 122.66829241 47.17518373 145.72948151 78.18603516 156.72680664 C85.34208289 159.11794434 92.4896268 161.11030964 100 162 C100.87914062 162.10957031 101.75828125 162.21914063 102.6640625 162.33203125 C130.34803218 165.19194547 160.91458511 162.04696221 183.29296875 143.93945312 C188.33759332 139.68557634 192.94192997 135.21751861 197 130 C197.33 130.66 197.66 131.32 198 132 C196.76682969 134.42392199 195.48665884 136.6910638 194.0625 139 C193.64718018 139.67844971 193.23186035 140.35689941 192.80395508 141.0559082 C184.24634883 154.80518329 172.94578968 167.56018492 159 176 C157.96101562 176.64453125 156.92203125 177.2890625 155.8515625 177.953125 C139.1876237 187.79464567 120.45713471 192.18742943 101.2722168 192.18530273 C99.09989016 192.18746282 96.92809462 192.2055742 94.75585938 192.22460938 C82.03909024 192.27856073 69.45525437 191.61493342 57.5 186.875 C56.7066626 186.57078125 55.9133252 186.2665625 55.09594727 185.953125 C40.64031335 180.25027093 28.11501177 172.17105573 15.95703125 162.546875 C14.4516966 161.35702964 12.91881065 160.20197929 11.375 159.0625 C7.87171207 156.02017101 4.98005521 152.54740039 2 149 C1.28457031 148.17242187 0.56914062 147.34484375 -0.16796875 146.4921875 C-5.87886177 139.74920538 -10.67901572 132.70244015 -15 125 C-15.34450195 124.39027344 -15.68900391 123.78054688 -16.04394531 123.15234375 C-21.77839182 112.83775298 -25.36975437 102.48587476 -28 91 C-28.24621094 89.96488281 -28.49242187 88.92976563 -28.74609375 87.86328125 C-33.30920879 65.29946414 -28.91105692 41.34881293 -16.2421875 22.1484375 C-11.74396652 15.83212024 -6.97693607 9.71673001 -2.19580078 3.61303711 C-0.92772004 1.99994324 -0.92772004 1.99994324 0 0 Z " fill="#3065B3" transform="translate(216,148)"/>
<path d="M0 0 C0.33 0.66 0.66 1.32 1 2 C0.13375 3.5778125 0.13375 3.5778125 -0.75 5.1875 C-7.7054159 18.66361831 -8.42861779 38.52325132 -4.1015625 52.98046875 C5.62888636 79.65294026 21.92073991 99.7389731 47.8125 112 C53.71564791 114.6676435 59.67761988 116.61194204 66 118 C66.64855957 118.16628906 67.29711914 118.33257812 67.96533203 118.50390625 C88.8429078 123.6418726 108.80453132 118.68745456 127 108 C133.73488503 103.71329807 138.41652651 98.49939488 143 92 C143.33 92.66 143.66 93.32 144 94 C140.32512815 102.57054859 135.1695316 110.0423446 129 117 C128.44699219 117.63550781 127.89398438 118.27101563 127.32421875 118.92578125 C120.50266863 126.26830895 111.87030695 130.79758569 102.8125 134.8125 C102.15967041 135.10253906 101.50684082 135.39257812 100.83422852 135.69140625 C91.53289697 139.6624719 83.05755442 140.34583494 73.06640625 140.31567383 C70.90051788 140.31253696 68.73603048 140.33594477 66.5703125 140.36132812 C54.36820958 140.41940643 42.57089575 139.12755342 31.6875 133.1875 C31.01509277 132.83494141 30.34268555 132.48238281 29.64990234 132.11914062 C24.53734588 129.39672592 19.64427268 126.47006034 15 123 C14.19304687 122.40703125 13.38609375 121.8140625 12.5546875 121.203125 C-6.05646178 106.9744176 -18.62130197 86.21967097 -22 63 C-24.05067544 42.09888497 -17.34535315 26.02556316 -6 9 C-5.36707031 8.04351562 -4.73414063 7.08703125 -4.08203125 6.1015625 C-2.72829026 4.06291217 -1.36857376 2.02870934 0 0 Z " fill="#3166B4" transform="translate(276,127)"/>
<path d="M0 0 C5.84779206 3.98408734 10.14657573 9.57581033 12.046875 16.39453125 C14.38247368 29.20005504 8.38461233 41.59986583 4.046875 53.39453125 C6.356875 53.39453125 8.666875 53.39453125 11.046875 53.39453125 C10.73928322 55.37446666 10.4256682 57.35346724 10.109375 59.33203125 C9.93535156 60.43417969 9.76132813 61.53632813 9.58203125 62.671875 C9.046875 65.39453125 9.046875 65.39453125 8.046875 66.39453125 C6.61650174 66.5082757 5.18063194 66.5540656 3.74584961 66.5715332 C2.37323219 66.59078606 2.37323219 66.59078606 0.97288513 66.61042786 C-0.52382973 66.62150826 -0.52382973 66.62150826 -2.05078125 66.6328125 C-3.07360703 66.64088425 -4.0964328 66.64895599 -5.1502533 66.65727234 C-7.32337742 66.67113707 -9.49652355 66.68184847 -11.66967773 66.68969727 C-14.97747965 66.70683363 -18.28426241 66.75068962 -21.59179688 66.79492188 C-23.70311765 66.80505516 -25.81444693 66.81356927 -27.92578125 66.8203125 C-29.40124168 66.84657463 -29.40124168 66.84657463 -30.9065094 66.87336731 C-38.75072619 66.84887929 -44.10903583 65.17541844 -49.765625 59.64453125 C-55.91600834 50.50681886 -55.80536732 42.27670286 -53.890625 31.64453125 C-51.26757714 20.39239138 -46.39040344 9.51734407 -36.953125 2.39453125 C-26.51664553 -3.98331731 -11.23208981 -5.4804852 0 0 Z " fill="#323031" transform="translate(236.953125,368.60546875)"/>
<path d="M0 0 C3.91547216 2.37412024 7.30550412 5.25424826 8.77734375 9.7109375 C9.36750447 12.7975303 9.35050526 15.75333657 9.34375 18.89453125 C9.34761719 20.68503906 9.34761719 20.68503906 9.3515625 22.51171875 C9.21875 26.01953125 9.21875 26.01953125 8.21875 32.01953125 C-3.66125 32.01953125 -15.54125 32.01953125 -27.78125 32.01953125 C-27.45125 34.32953125 -27.12125 36.63953125 -26.78125 39.01953125 C-23.24560537 41.37662767 -21.56099745 41.3196286 -17.36328125 41.43359375 C-16.10966797 41.47226562 -14.85605469 41.5109375 -13.56445312 41.55078125 C-12.25412109 41.58171875 -10.94378906 41.61265625 -9.59375 41.64453125 C-8.2584384 41.68272463 -6.92315108 41.72177716 -5.58789062 41.76171875 C-2.31915112 41.85612278 0.94958064 41.94170142 4.21875 42.01953125 C4.10416307 43.45789876 3.97665884 44.89524091 3.84375 46.33203125 C3.77414062 47.13253906 3.70453125 47.93304688 3.6328125 48.7578125 C3.21875 51.01953125 3.21875 51.01953125 1.21875 54.01953125 C-1.11279297 54.3918457 -1.11279297 54.3918457 -4.0234375 54.3828125 C-5.09078125 54.38216797 -6.158125 54.38152344 -7.2578125 54.38085938 C-8.94003906 54.35668945 -8.94003906 54.35668945 -10.65625 54.33203125 C-11.7390625 54.33525391 -12.821875 54.33847656 -13.9375 54.34179688 C-33.61842943 54.2126261 -33.61842943 54.2126261 -39.40625 49.64453125 C-44.007261 44.5592033 -44.27408158 40.54147201 -44.16015625 33.8046875 C-43.06370377 22.85146634 -39.50667219 11.90807964 -31.0546875 4.5078125 C-22.71526213 -1.90289115 -9.97326647 -3.51585658 0 0 Z " fill="#343233" transform="translate(351.78125,381.98046875)"/>
<path d="M0 0 C1.93166016 0.01740234 1.93166016 0.01740234 3.90234375 0.03515625 C5.19269531 0.04417969 6.48304688 0.05320312 7.8125 0.0625 C8.81152344 0.07410156 9.81054688 0.08570313 10.83984375 0.09765625 C10.46610265 8.24521228 8.93757261 16.06588963 7.21191406 24.01464844 C5.3232589 31.65868285 5.3232589 31.65868285 6.83984375 39.09765625 C9.38925748 39.41006996 11.84345888 39.61069046 14.40234375 39.72265625 C15.11326172 39.76132812 15.82417969 39.8 16.55664062 39.83984375 C18.317268 39.93437408 20.07852103 40.01711442 21.83984375 40.09765625 C21.95457031 38.83953125 22.06929688 37.58140625 22.1875 36.28515625 C22.79979613 30.78417587 24.00291059 25.47777058 25.27734375 20.09765625 C25.71371227 18.22269595 26.14991211 16.34769638 26.5859375 14.47265625 C26.79589355 13.57675781 27.00584961 12.68085938 27.22216797 11.7578125 C28.12321575 7.87725258 28.98281781 3.98815539 29.83984375 0.09765625 C34.45984375 0.09765625 39.07984375 0.09765625 43.83984375 0.09765625 C42.45497501 13.94634368 39.5462809 27.32747846 36.53515625 40.90527344 C35.57977427 45.2917112 34.69625031 49.69094075 33.83984375 54.09765625 C28.965229 54.19690448 24.09120878 54.26930206 19.21582031 54.31738281 C17.5591405 54.33743634 15.90253093 54.36468654 14.24609375 54.39941406 C11.85789617 54.44821137 9.47063828 54.47068689 7.08203125 54.48828125 C5.98010941 54.51924896 5.98010941 54.51924896 4.85592651 54.55084229 C-0.30011932 54.5530668 -3.22056127 53.39519047 -7.16015625 50.09765625 C-13.86563474 36.18135887 -7.76958879 15.15982072 -4.16015625 1.09765625 C-3.16015625 0.09765625 -3.16015625 0.09765625 0 0 Z " fill="#333132" transform="translate(264.16015625,380.90234375)"/>
<path d="M0 0 C0.33 0.66 0.66 1.32 1 2 C0.525625 3.051875 0.05125 4.10375 -0.4375 5.1875 C-4.63608914 15.9172278 -2.05918731 27.66109434 2 38 C2.27714844 38.72574219 2.55429687 39.45148438 2.83984375 40.19921875 C9.02371569 54.24829186 21.38089515 63.87835923 35 70 C47.17221546 74.35928019 64.00454739 75.63187609 76 70 C78.7812254 68.47774582 81.40366623 66.81683402 84 65 C84.99 64.34 85.98 63.68 87 63 C81.61242853 74.50389656 72.94369415 80.75219687 61.359375 85.23828125 C47.94477579 89.56915351 32.02134966 87.70253523 19.5625 81.5 C4.83706951 72.83048248 -6.53698077 60.78602476 -11.41796875 44.0703125 C-14.09444374 29.95145785 -11.39970905 16.72129718 -3.5625 4.81640625 C-2.40833707 3.18680689 -1.20917815 1.58920557 0 0 Z " fill="#3468B5" transform="translate(324,117)"/>
<path d="M0 0 C-3.67689875 5.80625063 -7.69122546 11.30330668 -11.875 16.75 C-12.4222876 17.4625293 -12.9695752 18.17505859 -13.53344727 18.90917969 C-16.05511546 22.18610438 -18.58173158 25.45917236 -21.11132812 28.72998047 C-23.28697177 31.54577664 -25.45619898 34.3664317 -27.625 37.1875 C-28.31190918 38.07211914 -28.99881836 38.95673828 -29.70654297 39.86816406 C-34.2237431 45.75212991 -37.64554657 51.17954504 -39.6875 58.375 C-40.120625 59.90125 -40.55375 61.4275 -41 63 C-46.28 63 -51.56 63 -57 63 C-56 57 -56 57 -55.58032227 54.81005859 C-54.56628924 48.48315991 -55.89648529 43.61852679 -57.9375 37.625 C-58.51245104 35.86827597 -59.08421355 34.11050425 -59.65234375 32.3515625 C-59.91007568 31.58666504 -60.16780762 30.82176758 -60.43334961 30.03369141 C-61 28 -61 28 -61 25 C-55.72 25 -50.44 25 -45 25 C-43 30 -43 30 -43 34 C-42.34 34 -41.68 34 -41 34 C-40.78601563 33.34128906 -40.57203125 32.68257813 -40.3515625 32.00390625 C-38.15208418 27.11547034 -34.88061105 22.98521075 -31.71508789 18.67993164 C-29.24172999 15.28503376 -26.90193187 12.02109003 -25.09765625 8.21875 C-19.49125233 -2.86214245 -11.05778182 -1.20387141 0 0 Z " fill="#323031" transform="translate(462,372)"/>
<path d="M0 0 C4.89295147 -0.07433779 9.78557183 -0.12869027 14.67895508 -0.16479492 C16.34242481 -0.17985114 18.00585505 -0.20030063 19.66918945 -0.22631836 C22.06471522 -0.26284207 24.45971467 -0.27975782 26.85546875 -0.29296875 C27.5952446 -0.30845261 28.33502045 -0.32393646 29.09721375 -0.33988953 C33.58294664 -0.34134085 36.47946924 0.15506477 40 3 C41.82820864 6.53033392 43 9.01080638 43 13 C27.655 13.495 27.655 13.495 12 14 C11.608125 16.145 11.21625 18.29 10.8125 20.5 C8.7362904 31.70571067 6.35091213 42.84942865 4 54 C-0.95 54 -5.9 54 -11 54 C-9.63848526 43.47855625 -7.70276773 33.18745801 -5.48608398 22.81835938 C-4.9296853 20.21341314 -4.38137478 17.60685258 -3.83398438 15 C-3.48223678 13.33844296 -3.13004047 11.67698083 -2.77734375 10.015625 C-2.61378891 9.23866272 -2.45023407 8.46170044 -2.28172302 7.66119385 C-1.11575891 2.23151781 -1.11575891 2.23151781 0 0 Z " fill="#323031" transform="translate(374,381)"/>
<path d="M0 0 C3.0112336 2.12989694 4.21443976 3.36745717 5.5625 6.8125 C6.32923739 13.67142741 4.77572092 19.64180248 2.6875 26.125 C2.41808594 27.00478516 2.14867187 27.88457031 1.87109375 28.79101562 C0.67284832 32.64001374 -0.55665245 36.23686178 -2.4375 39.8125 C-5.48067386 39.94808695 -8.51775562 40.04687239 -11.5625 40.125 C-12.4184375 40.16689453 -13.274375 40.20878906 -14.15625 40.25195312 C-18.50585058 40.33559929 -21.50717114 40.25827468 -24.9921875 37.48046875 C-28.93704659 33.17641323 -28.71528188 29.3753874 -28.65625 23.796875 C-27.93289963 13.92830923 -23.77979271 6.40173705 -16.4375 -0.1875 C-10.97204202 -2.00931933 -5.42817815 -1.87518881 0 0 Z " fill="#FBFBFB" transform="translate(227.4375,381.1875)"/>
<path d="M0 0 C1.39456452 0.00667256 2.78911118 0.01863093 4.18359375 0.03515625 C5.2499707 0.04192383 5.2499707 0.04192383 6.33789062 0.04882812 C8.09899388 0.06064761 9.86005411 0.07858362 11.62109375 0.09765625 C10.99581451 5.62813663 10.10469572 11.00267008 8.9140625 16.4375 C8.74739578 17.20389297 8.58072906 17.97028595 8.40901184 18.75990295 C8.05714913 20.36959013 7.70325525 21.97883455 7.34741211 23.58764648 C6.81121453 26.0232517 6.28923811 28.46163636 5.76757812 30.90039062 C1.29430842 51.42444158 1.29430842 51.42444158 -6.37890625 59.09765625 C-10.70662364 61.42735813 -14.89857416 61.33401785 -19.69140625 61.22265625 C-20.43197266 61.21363281 -21.17253906 61.20460938 -21.93554688 61.1953125 C-23.75014092 61.17189838 -25.56456696 61.1360324 -27.37890625 61.09765625 C-26.59986297 50.53956969 -26.59986297 50.53956969 -24.37890625 46.09765625 C-22.39322917 46 -20.40755208 45.90234375 -18.421875 45.8046875 C-15.315908 44.72977349 -14.84176803 43.01794518 -13.37890625 40.09765625 C-12.46506354 37.13901037 -11.80664842 34.13855772 -11.15234375 31.11328125 C-10.95919586 30.25708191 -10.76604797 29.40088257 -10.56704712 28.51873779 C-9.95428322 25.79684011 -9.3534384 23.07249617 -8.75390625 20.34765625 C-8.14541969 17.60898686 -7.53441558 14.87092568 -6.91934204 12.13372803 C-6.53778733 10.43305777 -6.16037799 8.73145131 -5.78744507 7.02886963 C-4.24807824 0.12277683 -4.24807824 0.12277683 0 0 Z " fill="#333132" transform="translate(165.37890625,396.90234375)"/>
<path d="M0 0 C4.95 0 9.9 0 15 0 C14.25 9.625 14.25 9.625 12 13 C8.7421875 13.29296875 8.7421875 13.29296875 4.875 13.1875 C2.95300781 13.14689453 2.95300781 13.14689453 0.9921875 13.10546875 C0.00476563 13.07066406 -0.98265625 13.03585937 -2 13 C-1.85915204 11.20793453 -1.71216299 9.41635083 -1.5625 7.625 C-1.48128906 6.62726563 -1.40007812 5.62953125 -1.31640625 4.6015625 C-1 2 -1 2 0 0 Z " fill="#353334" transform="translate(165,381)"/>
<path d="M0 0 C3.76914539 1.53829079 3.76914539 1.53829079 5 4 C5 5.98 5 7.96 5 10 C-1.93 10 -8.86 10 -16 10 C-15.0454668 5.22733398 -14.62375218 3.8187879 -10.8828125 0.9453125 C-7.40566917 -0.80047316 -3.77208151 -0.65154135 0 0 Z " fill="#F9F9F9" transform="translate(342,394)"/>
<path d="M0 0 C3.125 0.375 3.125 0.375 6 1 C7.32841008 6.43440487 7.32841008 6.43440487 5.875 8.9375 C4 10 4 10 1.4375 9.8125 C-1 9 -1 9 -3 7 C-2.67028521 3.70285207 -2.3773161 2.3773161 0 0 Z " fill="#3C6EB8" transform="translate(291,281)"/>
</svg>
