<?xml version="1.0" encoding="UTF-8"?>
<svg version="1.1" xmlns="http://www.w3.org/2000/svg" width="512" height="512">
<path d="M0 0 C1.44728153 -0.00258604 2.89456234 -0.00559986 4.34184217 -0.0090034 C8.31042511 -0.01704881 12.27898993 -0.0188616 16.24758005 -0.01960087 C20.53136076 -0.02145575 24.81513217 -0.02900532 29.09890747 -0.03573608 C38.46283655 -0.04930303 47.82676135 -0.05534173 57.19069862 -0.05974674 C63.0418011 -0.06251226 68.89290193 -0.06675021 74.7440033 -0.07125092 C90.9556391 -0.08344206 107.16727359 -0.09374128 123.37891388 -0.09712601 C124.41599376 -0.09734557 125.45307364 -0.09756514 126.52158019 -0.09779136 C127.56109329 -0.09800964 128.60060639 -0.09822791 129.67161989 -0.09845281 C131.77794679 -0.09889627 133.88427369 -0.09934283 135.99060059 -0.09979248 C137.03540382 -0.10001391 138.08020705 -0.10023534 139.15667099 -0.10046348 C156.07547867 -0.10440911 172.99424323 -0.12185665 189.91303426 -0.145152 C207.2985708 -0.16889603 224.68408572 -0.18132927 242.06963873 -0.18249393 C251.82475478 -0.18340904 261.57981464 -0.18911987 271.33491516 -0.20731354 C279.64386817 -0.22275582 287.95274762 -0.22781075 296.26171225 -0.21957543 C300.49648184 -0.21568334 304.7311035 -0.21652755 308.96585464 -0.23063278 C312.85233431 -0.24345885 316.73855619 -0.2420988 320.62503594 -0.23004207 C322.02145293 -0.2281 323.41788873 -0.23109347 324.81427938 -0.23988643 C349.31077942 -0.38421338 371.55947371 7.69683129 389.89587402 24.14044189 C390.53009277 24.69216064 391.16431152 25.24387939 391.81774902 25.81231689 C405.93557842 38.89397533 417.13425978 60.62667506 418.02582586 79.95813382 C418.0281565 80.99700171 418.03048714 82.0358696 418.03288841 83.10621834 C418.03796296 84.30971117 418.0430375 85.513204 418.04826581 86.75316632 C418.04901245 88.73128176 418.04901245 88.73128176 418.04977417 90.74935913 C418.0537911 92.16731539 418.05822971 93.58527051 418.06305373 95.00322425 C418.07500029 98.90018957 418.08066327 102.79714252 418.08523488 106.69412255 C418.0911986 110.89758122 418.10280685 115.10102516 418.11352539 119.30447388 C418.138037 129.45903738 418.15267743 139.61360575 418.16558546 149.76818973 C418.16929916 152.63869767 418.17327227 155.50920512 418.17733812 158.37971258 C418.20258319 176.22149072 418.22462714 194.06326966 418.23706627 211.90506172 C418.23999578 216.03706999 418.24295746 220.16907822 418.24597168 224.30108643 C418.24671773 225.32802773 418.24746378 226.35496904 418.24823244 227.41302978 C418.26086889 244.02536821 418.29406907 260.6375992 418.33577351 277.24988748 C418.3782828 294.32349558 418.40177191 311.39704883 418.40698683 328.47070968 C418.41039143 338.04941572 418.42203335 347.62795406 418.45508957 357.20660782 C418.48321549 365.36986751 418.49403492 373.53292511 418.48289411 381.69622947 C418.47773875 385.85462679 418.48038803 390.01260178 418.50535965 394.17093658 C418.68768664 426.31333658 413.52937123 451.38503857 391.08337402 475.39044189 C372.46914558 493.07395892 348.99936676 500.29890363 323.79174805 500.28088379 C322.34446652 500.28346983 320.89718571 500.28648365 319.44990587 500.28988719 C315.48132294 500.2979326 311.51275812 500.29974539 307.544168 500.30048466 C303.26038729 500.30233954 298.97661588 500.30988911 294.69284058 500.31661987 C285.32891149 500.33018682 275.9649867 500.33622552 266.60104942 500.34063053 C260.74994695 500.34339605 254.89884611 500.347634 249.04774475 500.3521347 C232.83610895 500.36432585 216.62447446 500.37462507 200.41283417 500.3780098 C199.37575429 500.37822936 198.3386744 500.37844893 197.27016786 500.37867515 C196.23065476 500.37889343 195.19114165 500.3791117 194.12012815 500.3793366 C192.01380126 500.37978006 189.90747436 500.38022662 187.80114746 500.38067627 C186.75634423 500.3808977 185.711541 500.38111913 184.63507706 500.38134727 C167.71626937 500.3852929 150.79750482 500.40274043 133.87871379 500.42603579 C116.49317725 500.44977981 99.10766233 500.46221306 81.72210932 500.46337771 C71.96699327 500.46429282 62.21193341 500.47000366 52.45683289 500.48819733 C44.14787988 500.50363961 35.83900043 500.50869454 27.53003579 500.50045922 C23.2952662 500.49656713 19.06064455 500.49741134 14.8258934 500.51151657 C10.93941374 500.52434264 7.05319185 500.52298259 3.16671211 500.51092586 C1.77029512 500.50898379 0.37385932 500.51197726 -1.02253133 500.52077022 C-25.51903137 500.66509717 -47.76772566 492.5840525 -66.10412598 476.14044189 C-66.73834473 475.58872314 -67.37256348 475.03700439 -68.02600098 474.46856689 C-82.14136136 461.38919626 -93.35039482 439.64948549 -94.23292714 420.31929797 C-94.23471571 419.27880386 -94.23650428 418.23830975 -94.23834705 417.16628551 C-94.2428049 415.96094258 -94.24726274 414.75559965 -94.25185567 413.51373118 C-94.25176638 412.17959987 -94.25157655 410.84546856 -94.251297 409.51133728 C-94.25459774 408.09124314 -94.25832375 406.67114994 -94.26243848 405.25105792 C-94.27244315 401.34829852 -94.27617282 397.4455545 -94.27882779 393.54278409 C-94.28273553 389.33324938 -94.29231371 385.12372679 -94.30104065 380.91419983 C-94.32079437 370.74630072 -94.33087103 360.57840064 -94.33976844 350.41048715 C-94.34415414 345.61835666 -94.34952031 340.82622728 -94.35475731 336.03409767 C-94.3717704 320.09619597 -94.38626269 304.15829494 -94.39350605 288.22038555 C-94.39541585 284.08525784 -94.3973362 279.95013013 -94.39929199 275.81500244 C-94.39977573 274.7872742 -94.40025947 273.75954597 -94.40075787 272.70067445 C-94.4090511 256.06692777 -94.43437571 239.43325316 -94.46687267 222.79953792 C-94.49998887 205.70899338 -94.51795903 188.61848541 -94.52115029 171.52790862 C-94.52331144 161.93758889 -94.53200178 152.34737419 -94.55761147 142.7570858 C-94.57938104 134.58607232 -94.58733832 126.41518938 -94.57764468 118.24415018 C-94.57311771 114.08010827 -94.57489193 109.91633533 -94.59440613 105.75233078 C-94.61216692 101.92918379 -94.61093708 98.10649942 -94.59550884 94.28334663 C-94.59204826 92.26831992 -94.60806218 90.25328761 -94.62511331 88.23833007 C-94.45502364 63.77753646 -83.8565749 41.66957175 -66.5958252 24.56329346 C-48.15652449 6.9750374 -25.08041232 -0.01792891 0 0 Z " fill="#001834" transform="translate(94.1041259765625,5.85955810546875)"/>
<path d="M0 0 C2.31625982 0.00330713 4.63139133 -0.02116398 6.94750977 -0.0456543 C21.18028022 -0.10538492 35.81839491 1.24340784 49.28540039 6.12817383 C50.0240332 6.38679199 50.76266602 6.64541016 51.52368164 6.91186523 C70.22977163 13.67275722 85.37589577 26.36360336 94.05493164 44.37426758 C102.33538345 62.71692694 103.31948601 86.85846682 96.25415039 105.76489258 C95.52711914 107.5225293 95.52711914 107.5225293 94.78540039 109.31567383 C94.36258789 110.39461914 93.93977539 111.47356445 93.50415039 112.58520508 C89.81489819 120.93964538 84.18459277 126.97188572 77.78540039 133.31567383 C77.14989258 133.98469727 76.51438477 134.6537207 75.85961914 135.34301758 C67.62454853 143.39549239 55.9682311 147.94561342 45.09790039 151.19067383 C44.13895874 151.4770874 44.13895874 151.4770874 43.16064453 151.76928711 C29.98841284 155.40835325 17.02006661 155.56929877 3.47290039 155.44067383 C-5.77741211 155.37879883 -5.77741211 155.37879883 -15.21459961 155.31567383 C-15.21459961 178.74567383 -15.21459961 202.17567383 -15.21459961 226.31567383 C-26.32116211 226.34661133 -26.32116211 226.34661133 -37.65209961 226.37817383 C-39.99231201 226.38727783 -42.33252441 226.39638184 -44.74365234 226.40576172 C-46.5868321 226.40868076 -48.43001249 226.41122935 -50.27319336 226.41333008 C-51.23970825 226.41844604 -52.20622314 226.42356201 -53.20202637 226.42883301 C-54.11552856 226.42895386 -55.02903076 226.42907471 -55.97021484 226.42919922 C-56.7674144 226.43141983 -57.56461395 226.43364044 -58.38597107 226.43592834 C-60.21459961 226.31567383 -60.21459961 226.31567383 -61.21459961 225.31567383 C-61.31253859 222.44572735 -61.34452252 219.59984328 -61.33485413 216.72947693 C-61.33570855 215.81799033 -61.33656298 214.90650373 -61.33744329 213.96739632 C-61.33910089 210.88872649 -61.33357217 207.81011019 -61.328125 204.73144531 C-61.32784316 202.53428143 -61.32800079 200.33711744 -61.3285675 198.13995361 C-61.32885561 192.15465834 -61.32295674 186.16938292 -61.31599355 180.18409228 C-61.30976222 173.93669913 -61.30915639 167.68930557 -61.30796814 161.44190979 C-61.30520845 150.94938841 -61.29895295 140.45687319 -61.29003906 129.96435547 C-61.28086562 119.15511105 -61.27378446 108.34586862 -61.26953125 97.53662109 C-61.26926853 96.8707838 -61.2690058 96.20494651 -61.26873512 95.51893234 C-61.26743012 92.17875509 -61.26616865 88.83857784 -61.26492321 85.49840057 C-61.25445734 57.77081989 -61.23685663 30.04324737 -61.21459961 2.31567383 C-55.45633097 2.03449912 -49.69797289 1.75525538 -43.93952847 1.47770405 C-41.98568044 1.38326953 -40.03185665 1.28833204 -38.0780592 1.19285679 C-25.38747284 0.57312299 -12.70930678 -0.03753159 0 0 Z " fill="#00A8FD" transform="translate(176.214599609375,132.684326171875)"/>
<path d="M0 0 C2.54078897 3.81118345 2.28832297 6.90083173 2.265625 11.31640625 C2.26753845 12.12867172 2.2694519 12.94093719 2.27142334 13.77781677 C2.27278347 15.49340119 2.26909904 17.20899595 2.26074219 18.92456055 C2.25002622 21.55606069 2.2606502 24.18688029 2.2734375 26.81835938 C2.27211615 28.48437651 2.26955425 30.15039322 2.265625 31.81640625 C2.26967346 32.60600235 2.27372192 33.39559845 2.27789307 34.2091217 C2.22992975 39.77007025 2.22992975 39.77007025 0 42 C-5.22907859 41.52813103 -10.28007014 39.13427008 -15.14648438 37.25976562 C-25.66127978 33.38993681 -36.24845562 32.65526783 -47.375 32.6875 C-48.51066406 32.67138672 -49.64632812 32.65527344 -50.81640625 32.63867188 C-58.83305129 32.62069614 -58.83305129 32.62069614 -66 36 C-68.14081795 38.60621315 -67.99959667 40.02218336 -67.9375 43.4375 C-66.52477062 48.80587165 -63.45377555 51.14031542 -58.75 53.921875 C-57.50588549 54.54317764 -56.25544396 55.15192111 -55 55.75 C-53.97362427 56.25261353 -53.97362427 56.25261353 -52.92651367 56.76538086 C-47.13686076 59.55690111 -41.23362684 62.06542155 -35.3125 64.5625 C-15.65450323 72.86466368 0.43892261 81.53149575 9 102 C10.28671495 106.54179741 10.18363056 111.12660897 10.1875 115.8125 C10.19974609 116.58142578 10.21199219 117.35035156 10.22460938 118.14257812 C10.25774548 131.23133774 4.9048867 143.30018669 -3.9375 152.875 C-12.66313559 161.02373407 -24.34708625 166.52025995 -36 169 C-36.89847656 169.20238281 -37.79695313 169.40476562 -38.72265625 169.61328125 C-62.1120262 174.04971658 -89.13761227 171.48605298 -111 162 C-112.96864941 160.4400081 -113.88262315 159.61144883 -114.36076355 157.12068176 C-114.35410172 156.41674789 -114.34743988 155.71281403 -114.34057617 154.98754883 C-114.34034958 154.18694534 -114.34012299 153.38634186 -114.33988953 152.56147766 C-114.32440567 151.70201035 -114.30892181 150.84254303 -114.29296875 149.95703125 C-114.28872391 149.0734343 -114.28447906 148.18983734 -114.28010559 147.27946472 C-114.26331043 144.45683339 -114.22565697 141.63491559 -114.1875 138.8125 C-114.17245423 136.89909885 -114.15876564 134.98568651 -114.14648438 133.07226562 C-114.11340419 128.38123541 -114.0616163 123.69073869 -114 119 C-109.60646317 117.53548772 -106.81910378 119.76434538 -102.875 121.6875 C-84.55037528 130.24357858 -63.22134866 134.06944658 -43.390625 128.94921875 C-40.11725074 127.64949662 -38.56173439 126.12346878 -37 123 C-36.45507262 119.00386591 -36.71657954 117.41204975 -39.03125 114.046875 C-42.11856163 110.52631391 -45.63283041 108.83909086 -49.875 107 C-50.62386475 106.66025146 -51.37272949 106.32050293 -52.14428711 105.97045898 C-56.8937297 103.84115647 -61.70390394 101.92642474 -66.5625 100.0625 C-84.39344959 93.06290383 -101.81035408 82.84439023 -110.44921875 65.0078125 C-114.56978725 53.64371831 -115.29555588 38.68398641 -110.31640625 27.4765625 C-109.88199219 26.65929687 -109.44757813 25.84203125 -109 25 C-108.51402344 24.07960937 -108.02804687 23.15921875 -107.52734375 22.2109375 C-99.21375657 7.94222758 -85.62016917 -0.44045547 -70 -4.9375 C-48.62452842 -10.24621087 -20.40240766 -9.00885533 0 0 Z " fill="#00A7FD" transform="translate(413,193)"/>
<path d="M0 0 C46.16293279 0 46.16293279 0 59 11 C66.66925797 18.89063861 68.46218761 26.98938373 68.3515625 37.70849609 C68.05832072 46.97208523 65.65190079 54.30712241 59 61 C42.35644661 74.79922362 20.41676003 73 0 73 C0 48.91 0 24.82 0 0 Z " fill="#001935" transform="translate(162,175)"/>
</svg>
